<svg width="16" height="16" viewBox="0 0 16 16" fill="none" xmlns="http://www.w3.org/2000/svg">
<path d="M9.268 1.16139V2.43389C10.968 2.44339 12.828 2.41639 14.5285 2.44339C14.5885 2.43296 14.6501 2.43666 14.7084 2.4542C14.7667 2.47174 14.8201 2.50263 14.8643 2.54443C14.9086 2.58622 14.9425 2.63776 14.9634 2.69495C14.9842 2.75214 14.9915 2.81341 14.9845 2.87389C15.0115 6.00689 14.978 9.31888 15.0005 12.4524C14.9905 12.6524 15.005 13.0114 14.974 13.2109C14.9345 13.4654 14.821 13.5144 14.5655 13.5489C14.4225 13.5684 14.1835 13.5659 14.043 13.5724C12.647 13.5654 11.252 13.5669 9.856 13.5674H9.2685V14.8409L1 13.5664V2.43639L9.268 1.16089" fill="#283C82"/>
<path d="M9.26807 2.91089H14.5181V13.0899H9.26807V11.8174H13.4031V11.1814H9.26807V10.3864H13.4031V9.74988H9.26807V8.95488H13.4031V8.31838H9.26807V7.52339H13.4031V6.88689H9.26807V6.09189H13.4031V5.45539H9.26807V4.66039H13.4031V4.02389H9.26807V2.91089Z" fill="white"/>
<path d="M4.28679 5.72145C4.58679 5.70395 4.89129 5.69145 5.19329 5.67545C5.40479 6.74895 5.62129 7.82095 5.85029 8.88994C6.02979 7.78595 6.22879 6.68545 6.42129 5.58345C6.73904 5.57206 7.05659 5.55539 7.37379 5.53345C7.01429 7.07445 6.69929 8.62844 6.30679 10.1604C6.04129 10.2989 5.64379 10.1539 5.32879 10.1764C5.11729 9.12344 4.87079 8.07644 4.68129 7.01945C4.49529 8.04994 4.25329 9.06644 4.04029 10.0874C3.73496 10.0714 3.42846 10.0529 3.12079 10.0319C2.85679 8.63194 2.54679 7.24245 2.30029 5.83945C2.57229 5.82695 2.84579 5.81545 3.11779 5.80595C3.28179 6.81895 3.46779 7.82745 3.61079 8.84194C3.83479 7.80195 4.06429 6.76145 4.28679 5.72145Z" fill="white"/>
<path d="M13.3628 8.8752H10.4379C10.3409 8.8752 10.2479 8.83669 10.1793 8.76812C10.1108 8.69954 10.0723 8.60655 10.0723 8.50958V7.0471C10.0723 6.56226 10.2648 6.09728 10.6077 5.75443C10.9505 5.41159 11.4156 5.21899 11.9004 5.21899C12.3852 5.21899 12.8501 5.41159 13.193 5.75443C13.5358 6.09728 13.7285 6.56226 13.7285 7.0471V8.50958C13.7285 8.60655 13.6898 8.69954 13.6213 8.76812C13.5528 8.83669 13.4599 8.8752 13.3628 8.8752ZM10.8035 8.14397H12.9972V7.0471C12.9972 6.7562 12.8817 6.4772 12.676 6.27151C12.4702 6.0658 12.1913 5.95023 11.9004 5.95023C11.6095 5.95023 11.3305 6.0658 11.1248 6.27151C10.919 6.4772 10.8035 6.7562 10.8035 7.0471V8.14397Z" fill="#CFD8DC"/>
<path d="M10.0721 8.8752C10.0721 7.65646 9.46273 5.21899 11.9002 5.21899C14.199 5.21899 13.7283 7.65646 13.7283 8.8752" stroke="white" stroke-width="0.4"/>
<path d="M14.4593 7.90015H9.34061C8.60021 7.90015 8 8.50036 8 9.24073V14.3594C8 15.0998 8.6002 15.7 9.34061 15.7H14.4593C15.1998 15.7 15.7999 15.0998 15.7999 14.3594V9.24073C15.7999 8.50037 15.1997 7.90015 14.4593 7.90015Z" fill="#78909C" stroke="white" stroke-width="0.4"/>
<path d="M11.9001 12.8971C12.5059 12.8971 12.9969 12.4059 12.9969 11.8002C12.9969 11.1944 12.5059 10.7034 11.9001 10.7034C11.2943 10.7034 10.8032 11.1944 10.8032 11.8002C10.8032 12.4059 11.2943 12.8971 11.9001 12.8971Z" fill="#CFD8DC"/>
</svg>
