<svg width="16" height="16" viewBox="0 0 16 16" fill="none" xmlns="http://www.w3.org/2000/svg">
<g clip-path="url(#clip0_2228:42)">
<path d="M9.268 1V2.4315C10.968 2.441 12.9465 2.414 14.645 2.4395C14.966 2.4395 14.98 2.7235 14.984 2.9715C15.011 5.9425 14.9775 8.999 15 11.9715C14.994 12.0885 14.997 12.5215 14.9935 12.6445C14.9825 13.056 14.7765 13.074 14.365 13.0865C14.299 13.0865 14.105 13.0895 14.041 13.0925C12.4505 13.0845 10.86 13.088 9.268 13.088V14.679L1 13.4065V2.276L9.268 1.0005" fill="#D33922"/>
<path d="M9.2681 2.90845H14.5181V12.6084H9.2681V11.3394H13.0851V10.7019H9.2681V9.9069H13.0851V9.2709H9.2696C9.2696 8.9589 9.2696 8.6474 9.2666 8.3359C9.5789 8.4486 9.9124 8.4902 10.2428 8.4578C10.5732 8.4254 10.8922 8.3197 11.1766 8.1484C11.4665 7.95795 11.7067 7.70091 11.877 7.39876C12.0474 7.0966 12.1431 6.75809 12.1561 6.41145C11.4561 6.40645 10.7596 6.40845 10.0631 6.40845C10.0631 5.71645 10.0711 5.02495 10.0486 4.33445C9.7876 4.38445 9.5271 4.43945 9.2676 4.49495V2.90895" fill="white"/>
<path d="M10.3833 4.00146C10.9256 4.03545 11.4371 4.2656 11.8222 4.64898C12.2074 5.03236 12.4398 5.54277 12.4763 6.08496C11.7763 6.09296 11.0798 6.08996 10.3818 6.08996V4.00146" fill="#D33922"/>
<path d="M3.55003 5.20235C4.41353 5.24385 5.46003 4.86035 6.17603 5.50785C6.86153 6.33985 6.68003 7.86985 5.66403 8.36738C5.29461 8.51368 4.89413 8.56388 4.50003 8.51338C4.50003 9.13538 4.49703 9.75738 4.50003 10.3789C4.18503 10.3519 3.86853 10.3249 3.55353 10.2994C3.53903 8.59938 3.53603 6.89935 3.55353 5.19935" fill="white"/>
<path d="M4.49649 6.06244C4.80999 6.04794 5.19649 5.99094 5.40949 6.28494C5.49465 6.44503 5.54089 6.62294 5.54445 6.80424C5.54801 6.98554 5.5088 7.16513 5.42999 7.32844C5.24849 7.65594 4.83849 7.62444 4.52199 7.66244C4.48849 7.12944 4.49199 6.59694 4.49649 6.06244Z" fill="#D33922"/>
<path d="M10.5015 15.0005L6.00146 10.1591H8.42454V6.00049H12.5784V10.1591H15.0015L10.5015 15.0005Z" fill="#01963D" stroke="white"/>
</g>
<defs>
<clipPath id="clip0_2228:42">
<rect width="16" height="16" fill="white"/>
</clipPath>
</defs>
</svg>
