<svg width="16" height="16" viewBox="0 0 16 16" fill="none" xmlns="http://www.w3.org/2000/svg">
<path d="M11.5938 14.3958H5.40625C4.46875 14.3958 3.67187 13.9 3.53125 13.1917L1.46875 2.70833H15.5312L13.4219 13.1917C13.2812 13.9 12.4844 14.3958 11.5938 14.3958Z" fill="#AFB9D2"/>
<path d="M15.0625 3.41667H1.9375C1.42187 3.41667 1 3.09792 1 2.70833C1 2.31875 1.42187 2 1.9375 2H15.0625C15.5781 2 16 2.31875 16 2.70833C16 3.09792 15.5781 3.41667 15.0625 3.41667Z" fill="#C7CFE2"/>
<line x1="9.5" y1="5.5" x2="9.5" y2="12.5" stroke="#959CB5" stroke-linecap="round"/>
<line x1="11.5" y1="5.5" x2="11.5" y2="12.5" stroke="#959CB5" stroke-linecap="round"/>
<line x1="7.5" y1="5.5" x2="7.5" y2="12.5" stroke="#959CB5" stroke-linecap="round"/>
<line x1="5.5" y1="5.5" x2="5.5" y2="12.5" stroke="#959CB5" stroke-linecap="round"/>
</svg>
