<svg width="20" height="20" viewBox="0 0 20 20" fill="none" xmlns="http://www.w3.org/2000/svg">
<path d="M13.3177 5.36863H7.15883L5.7902 4H2.36863C1.61588 4 1 4.61588 1 5.36863V8.10589H14.6863V6.73726C14.6863 5.98451 14.0704 5.36863 13.3177 5.36863Z" fill="#F1D04C"/>
<path d="M13.3177 5.36859H2.36863C1.61588 5.36859 1 5.98447 1 6.73722V13.5804C1 14.3331 1.61588 14.949 2.36863 14.949H13.3177C14.0704 14.949 14.6863 14.3331 14.6863 13.5804V6.73722C14.6863 5.98447 14.0704 5.36859 13.3177 5.36859Z" fill="#FFE486"/>
<g clip-path="url(#clip0)">
<ellipse cx="14.2513" cy="11.42" rx="4.74863" ry="4.47326" fill="#8CC237"/>
<path d="M13.9731 8.27472H14.5296C14.5791 8.27472 14.6038 8.29802 14.6038 8.34461V14.4953C14.6038 14.5419 14.5791 14.5652 14.5296 14.5652H13.9731C13.9237 14.5652 13.8989 14.5419 13.8989 14.4953V8.34461C13.8989 8.29802 13.9237 8.27472 13.9731 8.27472Z" fill="white"/>
<path d="M11.135 11.088H17.3676C17.417 11.088 17.4418 11.1112 17.4418 11.1578V11.6821C17.4418 11.7287 17.417 11.752 17.3676 11.752H11.135C11.0855 11.752 11.0608 11.7287 11.0608 11.6821V11.1578C11.0608 11.1112 11.0855 11.088 11.135 11.088Z" fill="white"/>
</g>
<defs>
<clipPath id="clip0">
<rect width="9.49727" height="8.94652" fill="white" transform="translate(9.50269 6.94672)"/>
</clipPath>
</defs>
</svg>
