<svg width="20" height="20" viewBox="0 0 20 20" fill="none" xmlns="http://www.w3.org/2000/svg">
<path d="M12.3749 6.26786H8.16057C8.02086 6.26786 7.88687 6.21236 7.78808 6.11357C7.68929 6.01477 7.63379 5.88078 7.63379 5.74107V3.63393C7.63379 2.93537 7.91129 2.26542 8.40525 1.77146C8.89921 1.2775 9.56916 1 10.2677 1C10.9663 1 11.6362 1.2775 12.1302 1.77146C12.6241 2.26542 12.9016 2.93537 12.9016 3.63393V5.74107C12.9016 5.88078 12.8461 6.01477 12.7474 6.11357C12.6486 6.21236 12.5146 6.26786 12.3749 6.26786ZM8.68736 5.21429H11.8481V3.63393C11.8481 3.21479 11.6816 2.81282 11.3852 2.51645C11.0888 2.22007 10.6869 2.05357 10.2677 2.05357C9.84858 2.05357 9.44661 2.22007 9.15024 2.51645C8.85386 2.81282 8.68736 3.21479 8.68736 3.63393V5.21429Z" fill="#CFD8DC"/>
<path d="M13.9554 5.21436H6.58036C5.70755 5.21436 5 5.92191 5 6.79471V14.1697C5 15.0425 5.70755 15.7501 6.58036 15.7501H13.9554C14.8282 15.7501 15.5357 15.0425 15.5357 14.1697V6.79471C15.5357 5.92191 14.8282 5.21436 13.9554 5.21436Z" fill="#78909C"/>
<path d="M10.2679 12.0626C11.1407 12.0626 11.8482 11.355 11.8482 10.4822C11.8482 9.60941 11.1407 8.90186 10.2679 8.90186C9.39505 8.90186 8.6875 9.60941 8.6875 10.4822C8.6875 11.355 9.39505 12.0626 10.2679 12.0626Z" fill="#CFD8DC"/>
</svg>
