<svg width="16" height="16" viewBox="0 0 16 16" fill="none" xmlns="http://www.w3.org/2000/svg">
<path d="M15.3565 9.0625V1.75447C15.3565 1.34441 15.0208 1 14.6107 1H10.673C10.3828 1 10.1192 1.17509 9.99814 1.43887L9.60098 2.31084C9.47995 2.57462 9.21633 2.75 8.92611 2.75H2.12326C1.7132 2.75 1.3877 3.07581 1.3877 3.48591V10.2472C1.3877 10.6573 1.7132 11 2.12326 11H14.6107C14.6304 11 14.6497 10.9887 14.6689 10.9872V12.4062H14.6796C14.6796 12.5937 14.832 12.7386 15.018 12.7386C15.204 12.7386 15.3565 12.5834 15.3565 12.3974V9.0625Z" fill="#0074A8"/>
<path d="M15.018 12.7386C14.832 12.7386 14.6796 12.5938 14.6796 12.4063H14.6689V5.44316C14.6689 5.03306 14.3459 4.6875 13.9358 4.6875H1.44832C1.03826 4.6875 0.700195 5.03306 0.700195 5.44316V12.9178C0.700195 13.3279 1.03826 13.6563 1.44832 13.6563H13.9358C13.9791 13.6563 14.0214 13.6544 14.0627 13.6473C14.1139 13.6543 14.1661 13.6593 14.2193 13.6593C14.8456 13.6593 15.3486 13.1521 15.3486 12.5259C15.3486 12.5092 15.3474 12.4928 15.3468 12.4763C15.3109 12.6253 15.1769 12.7386 15.018 12.7386Z" fill="#8ECFEC"/>
<path d="M13.3628 8.8752H10.4379C10.3409 8.8752 10.2479 8.83669 10.1793 8.76812C10.1108 8.69954 10.0723 8.60655 10.0723 8.50958V7.0471C10.0723 6.56226 10.2648 6.09728 10.6077 5.75443C10.9505 5.41159 11.4156 5.21899 11.9004 5.21899C12.3852 5.21899 12.8501 5.41159 13.193 5.75443C13.5358 6.09728 13.7285 6.56226 13.7285 7.0471V8.50958C13.7285 8.60655 13.6898 8.69954 13.6213 8.76812C13.5528 8.83669 13.4599 8.8752 13.3628 8.8752ZM10.8035 8.14397H12.9972V7.0471C12.9972 6.7562 12.8817 6.4772 12.676 6.27151C12.4702 6.0658 12.1913 5.95023 11.9004 5.95023C11.6095 5.95023 11.3305 6.0658 11.1248 6.27151C10.919 6.4772 10.8035 6.7562 10.8035 7.0471V8.14397Z" fill="#CFD8DC"/>
<path d="M10.0721 8.8752C10.0721 7.65646 9.46273 5.21899 11.9002 5.21899C14.199 5.21899 13.7283 7.65646 13.7283 8.8752" stroke="white" stroke-width="0.4"/>
<path d="M14.4593 7.90015H9.34061C8.60021 7.90015 8 8.50036 8 9.24073V14.3594C8 15.0998 8.6002 15.7 9.34061 15.7H14.4593C15.1998 15.7 15.7999 15.0998 15.7999 14.3594V9.24073C15.7999 8.50037 15.1997 7.90015 14.4593 7.90015Z" fill="#78909C" stroke="white" stroke-width="0.4"/>
<path d="M11.9001 12.8971C12.5059 12.8971 12.9969 12.4059 12.9969 11.8002C12.9969 11.1944 12.5059 10.7034 11.9001 10.7034C11.2943 10.7034 10.8032 11.1944 10.8032 11.8002C10.8032 12.4059 11.2943 12.8971 11.9001 12.8971Z" fill="#CFD8DC"/>
</svg>
