<svg width="20" height="20" viewBox="0 0 20 20" fill="none" xmlns="http://www.w3.org/2000/svg">
<path d="M5.80029 5.07445V4.05C5.80029 3.77152 5.91092 3.50445 6.10783 3.30754C6.30474 3.11062 6.57182 3 6.85029 3H15.9503C16.2288 3 16.4959 3.11062 16.6928 3.30754C16.8897 3.50445 17.0003 3.77152 17.0003 4.05V13.15C17.0003 13.4285 16.8897 13.6956 16.6928 13.8925C16.4959 14.0894 16.2288 14.2 15.9503 14.2H14.9063" fill="#C4C4C4"/>
<path d="M13.85 5.09985H4.05C3.4701 5.09985 3 5.56995 3 6.14985V15.9499C3 16.5298 3.4701 16.9999 4.05 16.9999H13.85C14.4299 16.9999 14.9 16.5298 14.9 15.9499V6.14985C14.9 5.56995 14.4299 5.09985 13.85 5.09985Z" fill="#2F88FF"/>
<path fill-rule="evenodd" clip-rule="evenodd" d="M10.4054 8.25121L9.42594 9.27098L10.8905 9.59002L11.2875 9.16955C11.2921 9.16468 11.2968 9.15987 11.3015 9.15513C11.524 8.93262 11.5375 8.54115 11.2766 8.28061L11.2761 8.28012C11.0169 8.02073 10.6287 8.03258 10.4054 8.25121ZM12.2662 7.29027C11.4833 6.50706 10.2053 6.47185 9.41167 7.26496C9.40829 7.26835 9.40493 7.27177 9.40162 7.27522L7.54941 9.20372C7.37383 9.38654 7.31079 9.65 7.38463 9.89249C7.45846 10.135 7.65761 10.3186 7.90529 10.3726L10.979 11.0421C11.2188 11.0944 11.4685 11.0172 11.637 10.8387L12.2993 10.1372C13.085 9.34284 13.0469 8.07018 12.2662 7.29027ZM6.80835 11.1666C7.08172 11.44 7.08172 11.8832 6.80835 12.1565C6.71535 12.2495 6.57529 12.3864 6.46079 12.4979C6.40305 12.5541 6.35096 12.6046 6.31331 12.6411L6.25713 12.6955C6.02141 12.9349 6.01724 13.3942 6.2606 13.6376C6.52115 13.8981 6.91288 13.8847 7.13545 13.6621C7.14342 13.6541 7.15157 13.6463 7.15991 13.6388L8.96731 11.998C9.25356 11.7381 9.69626 11.7595 9.95611 12.0457C10.216 12.332 10.1946 12.7747 9.90834 13.0345L8.11213 14.6652C7.31739 15.4454 6.04875 15.4056 5.27065 14.6275C4.47068 13.8276 4.49339 12.4783 5.27099 11.7017L5.27907 11.6938L5.33891 11.6359C5.37607 11.5998 5.42745 11.55 5.48433 11.4946C5.59909 11.3829 5.7329 11.2521 5.8184 11.1666C6.09177 10.8932 6.53498 10.8932 6.80835 11.1666Z" fill="white"/>
<path fill-rule="evenodd" clip-rule="evenodd" d="M8.36972 9.00116C8.63081 9.1069 8.80308 9.35885 8.80689 9.64051L8.81561 10.2858C8.8439 10.2397 8.87803 10.1961 8.918 10.1562C9.19146 9.88291 9.63467 9.88306 9.90795 10.1565C10.6897 10.9388 10.7269 12.2173 9.93246 13.0113C9.659 13.2845 9.21578 13.2844 8.94251 13.0109C8.66924 12.7375 8.66939 12.2943 8.94285 12.021C9.16477 11.7992 9.17887 11.4075 8.91766 11.1461C8.88248 11.1109 8.85183 11.0729 8.82571 11.0328L8.83209 11.5053C8.83593 11.7898 8.66724 12.0483 8.40531 12.1593C8.14338 12.2703 7.84031 12.2117 7.63858 12.0111C7.28625 11.6608 7.07302 11.1945 7.03842 10.6989C7.01786 10.4161 7.05822 10.1321 7.15678 9.8661C7.25552 9.59964 7.41038 9.35752 7.61085 9.15612C7.80959 8.95649 8.10863 8.89542 8.36972 9.00116Z" fill="white"/>
</svg>
