<svg width="16" height="16" viewBox="0 0 16 16" fill="none" xmlns="http://www.w3.org/2000/svg">
<g clip-path="url(#clip0_2228:42)">
<path d="M15.3565 9.0625V1.75447C15.3565 1.34441 15.0208 1 14.6107 1H10.673C10.3828 1 10.1192 1.17509 9.99814 1.43887L9.60098 2.31084C9.47995 2.57462 9.21633 2.75 8.92611 2.75H2.12326C1.7132 2.75 1.3877 3.07581 1.3877 3.48591V10.2472C1.3877 10.6573 1.7132 11 2.12326 11H14.6107C14.6304 11 14.6497 10.9887 14.6689 10.9872V12.4062H14.6796C14.6796 12.5937 14.832 12.7386 15.018 12.7386C15.204 12.7386 15.3565 12.5834 15.3565 12.3974V9.0625Z" fill="#0074A8"/>
<path d="M15.018 12.7386C14.832 12.7386 14.6796 12.5938 14.6796 12.4063H14.6689V5.44316C14.6689 5.03306 14.3459 4.6875 13.9358 4.6875H1.44832C1.03826 4.6875 0.700195 5.03306 0.700195 5.44316V12.9178C0.700195 13.3279 1.03826 13.6563 1.44832 13.6563H13.9358C13.9791 13.6563 14.0214 13.6544 14.0627 13.6473C14.1139 13.6543 14.1661 13.6593 14.2193 13.6593C14.8456 13.6593 15.3486 13.1521 15.3486 12.5259C15.3486 12.5092 15.3474 12.4928 15.3468 12.4763C15.3109 12.6253 15.1769 12.7386 15.018 12.7386Z" fill="#8ECFEC"/>
<path d="M10.5 6L15 10.8414H12.5769L12.5769 15L8.42308 15L8.42308 10.8414L6 10.8414L10.5 6Z" fill="#FE5C18" stroke="white"/>
</g>
<defs>
<clipPath id="clip0_2228:42">
<rect width="16" height="16" fill="white"/>
</clipPath>
</defs>
</svg>
