<svg width="16" height="16" viewBox="0 0 16 16" fill="none" xmlns="http://www.w3.org/2000/svg">
<path fill-rule="evenodd" clip-rule="evenodd" d="M14.3905 2.1935H9.3255V1L1 2.285V13.5485L9.3255 14.9825V13.2135H14.3905C14.5439 13.2213 14.6941 13.168 14.8083 13.0653C14.9226 12.9626 14.9915 12.8189 15 12.6655V2.741C14.9913 2.58773 14.9224 2.44412 14.8082 2.34153C14.694 2.23894 14.5438 2.18573 14.3905 2.1935ZM14.4705 12.7565H9.3085L9.3 11.812H10.5435V10.712H9.2905L9.2845 10.062H10.5435V8.962H9.275L9.269 8.312H10.5435V7.212H9.265V6.562H10.5435V5.462H9.265V4.812H10.5435V3.712H9.265V2.712H14.4705V12.7565Z" fill="#20744A"/>
<path d="M11.2432 3.71045H13.4047V4.81045H11.2432V3.71045Z" fill="#20744A"/>
<path d="M11.2432 5.46094H13.4047V6.56094H11.2432V5.46094Z" fill="#20744A"/>
<path d="M11.2432 7.21167H13.4047V8.31162H11.2432V7.21167Z" fill="#20744A"/>
<path d="M11.2432 8.96191H13.4047V10.0619H11.2432V8.96191Z" fill="#20744A"/>
<path d="M11.2432 10.7124H13.4047V11.8124H11.2432V10.7124Z" fill="#20744A"/>
<path fill-rule="evenodd" clip-rule="evenodd" d="M3.17354 5.32743L4.24654 5.26593L4.92104 7.12043L5.71804 5.18943L6.79104 5.12793L5.48804 7.76093L6.79104 10.4005L5.65654 10.324L4.89054 8.31198L4.12404 10.2475L3.08154 10.1555L4.29254 7.82393L3.17354 5.32743Z" fill="white"/>
</svg>
