<svg width="16" height="16" viewBox="0 0 16 16" fill="none" xmlns="http://www.w3.org/2000/svg">
<path d="M9.268 1.16139V2.43389C10.968 2.44339 12.828 2.41639 14.5285 2.44339C14.5885 2.43296 14.6501 2.43666 14.7084 2.4542C14.7667 2.47174 14.8201 2.50263 14.8643 2.54443C14.9086 2.58622 14.9425 2.63776 14.9634 2.69495C14.9842 2.75214 14.9915 2.81341 14.9845 2.87389C15.0115 6.00689 14.978 9.31888 15.0005 12.4524C14.9905 12.6524 15.005 13.0114 14.974 13.2109C14.9345 13.4654 14.821 13.5144 14.5655 13.5489C14.4225 13.5684 14.1835 13.5659 14.043 13.5724C12.647 13.5654 11.252 13.5669 9.856 13.5674H9.2685V14.8409L1 13.5664V2.43639L9.268 1.16089" fill="#283C82"/>
<path d="M9.26807 2.91089H14.5181V13.0899H9.26807V11.8174H13.4031V11.1814H9.26807V10.3864H13.4031V9.74988H9.26807V8.95488H13.4031V8.31838H9.26807V7.52339H13.4031V6.88689H9.26807V6.09189H13.4031V5.45539H9.26807V4.66039H13.4031V4.02389H9.26807V2.91089Z" fill="white"/>
<path d="M4.28679 5.72145C4.58679 5.70395 4.89129 5.69145 5.19329 5.67545C5.40479 6.74895 5.62129 7.82095 5.85029 8.88994C6.02979 7.78595 6.22879 6.68545 6.42129 5.58345C6.73904 5.57206 7.05659 5.55539 7.37379 5.53345C7.01429 7.07445 6.69929 8.62844 6.30679 10.1604C6.04129 10.2989 5.64379 10.1539 5.32879 10.1764C5.11729 9.12344 4.87079 8.07644 4.68129 7.01945C4.49529 8.04994 4.25329 9.06644 4.04029 10.0874C3.73496 10.0714 3.42846 10.0529 3.12079 10.0319C2.85679 8.63194 2.54679 7.24245 2.30029 5.83945C2.57229 5.82695 2.84579 5.81545 3.11779 5.80595C3.28179 6.81895 3.46779 7.82745 3.61079 8.84194C3.83479 7.80195 4.06429 6.76145 4.28679 5.72145Z" fill="white"/>
</svg>
