<svg width="16" height="16" viewBox="0 0 16 16" fill="none" xmlns="http://www.w3.org/2000/svg">
<path d="M15.3438 10.1875V2.87947C15.3438 2.46941 15.0081 2.125 14.598 2.125H10.6603C10.3701 2.125 10.1065 2.30009 9.98544 2.56387L9.58828 3.43584C9.46725 3.69962 9.20363 3.875 8.91341 3.875H2.11056C1.7005 3.875 1.375 4.20081 1.375 4.61091V11.3722C1.375 11.7823 1.7005 12.125 2.11056 12.125H14.598C14.6177 12.125 14.637 12.1137 14.6562 12.1122V13.5312H14.6669C14.6669 13.7187 14.8193 13.8636 15.0053 13.8636C15.1913 13.8636 15.3438 13.7084 15.3438 13.5224V10.1875Z" fill="#0074A8"/>
<path d="M15.0053 13.8636C14.8193 13.8636 14.6669 13.7188 14.6669 13.5313H14.6562V6.56816C14.6562 6.15806 14.3332 5.8125 13.9231 5.8125H1.43562C1.02556 5.8125 0.6875 6.15806 0.6875 6.56816V14.0428C0.6875 14.4529 1.02556 14.7813 1.43562 14.7813H13.9231C13.9664 14.7813 14.0087 14.7794 14.05 14.7723C14.1012 14.7793 14.1534 14.7843 14.2066 14.7843C14.8329 14.7843 15.3359 14.2771 15.3359 13.6509C15.3359 13.6342 15.3347 13.6178 15.3341 13.6013C15.2982 13.7503 15.1642 13.8636 15.0053 13.8636Z" fill="#8ECFEC"/>
</svg>
