<svg width="16" height="16" viewBox="0 0 16 16" fill="none" xmlns="http://www.w3.org/2000/svg">
<path d="M13 14.125H3V1H9.875L13 4.125V14.125Z" fill="#E2E5E7"/>
<path d="M12.4792 4.43717H9.5625V1.52051L12.4792 4.43717Z" fill="#B0B7BD"/>
<path d="M13.3628 8.8752H10.4379C10.3409 8.8752 10.2479 8.83669 10.1793 8.76812C10.1108 8.69954 10.0723 8.60655 10.0723 8.50958V7.0471C10.0723 6.56226 10.2648 6.09728 10.6077 5.75443C10.9505 5.41159 11.4156 5.21899 11.9004 5.21899C12.3852 5.21899 12.8501 5.41159 13.193 5.75443C13.5358 6.09728 13.7285 6.56226 13.7285 7.0471V8.50958C13.7285 8.60655 13.6898 8.69954 13.6213 8.76812C13.5528 8.83669 13.4599 8.8752 13.3628 8.8752ZM10.8035 8.14397H12.9972V7.0471C12.9972 6.7562 12.8817 6.4772 12.676 6.27151C12.4702 6.0658 12.1913 5.95023 11.9004 5.95023C11.6095 5.95023 11.3305 6.0658 11.1248 6.27151C10.919 6.4772 10.8035 6.7562 10.8035 7.0471V8.14397Z" fill="#CFD8DC"/>
<path d="M10.0721 8.8752C10.0721 7.65646 9.46273 5.21899 11.9002 5.21899C14.199 5.21899 13.7283 7.65646 13.7283 8.8752" stroke="white" stroke-width="0.4"/>
<path d="M14.4593 7.90015H9.34061C8.60021 7.90015 8 8.50036 8 9.24073V14.3594C8 15.0998 8.6002 15.7 9.34061 15.7H14.4593C15.1998 15.7 15.7999 15.0998 15.7999 14.3594V9.24073C15.7999 8.50037 15.1997 7.90015 14.4593 7.90015Z" fill="#78909C" stroke="white" stroke-width="0.4"/>
<path d="M11.9001 12.8971C12.5059 12.8971 12.9969 12.4059 12.9969 11.8002C12.9969 11.1944 12.5059 10.7034 11.9001 10.7034C11.2943 10.7034 10.8032 11.1944 10.8032 11.8002C10.8032 12.4059 11.2943 12.8971 11.9001 12.8971Z" fill="#CFD8DC"/>
</svg>
