<svg width="16" height="16" viewBox="0 0 16 16" fill="none" xmlns="http://www.w3.org/2000/svg">
<path fill-rule="evenodd" clip-rule="evenodd" d="M14.3905 2.1935H9.3255V1L1 2.285V13.5485L9.3255 14.9825V13.2135H14.3905C14.5439 13.2213 14.6941 13.168 14.8083 13.0653C14.9226 12.9626 14.9915 12.8189 15 12.6655V2.741C14.9913 2.58773 14.9224 2.44412 14.8082 2.34153C14.694 2.23894 14.5438 2.18573 14.3905 2.1935ZM14.4705 12.7565H9.3085L9.3 11.812H10.5435V10.712H9.2905L9.2845 10.062H10.5435V8.962H9.275L9.269 8.312H10.5435V7.212H9.265V6.562H10.5435V5.462H9.265V4.812H10.5435V3.712H9.265V2.712H14.4705V12.7565Z" fill="#20744A"/>
<path d="M11.2432 3.71045H13.4047V4.81045H11.2432V3.71045Z" fill="#20744A"/>
<path d="M11.2432 5.46094H13.4047V6.56094H11.2432V5.46094Z" fill="#20744A"/>
<path d="M11.2432 7.21167H13.4047V8.31162H11.2432V7.21167Z" fill="#20744A"/>
<path d="M11.2432 8.96191H13.4047V10.0619H11.2432V8.96191Z" fill="#20744A"/>
<path d="M11.2432 10.7124H13.4047V11.8124H11.2432V10.7124Z" fill="#20744A"/>
<path fill-rule="evenodd" clip-rule="evenodd" d="M3.17354 5.32743L4.24654 5.26593L4.92104 7.12043L5.71804 5.18943L6.79104 5.12793L5.48804 7.76093L6.79104 10.4005L5.65654 10.324L4.89054 8.31198L4.12404 10.2475L3.08154 10.1555L4.29254 7.82393L3.17354 5.32743Z" fill="white"/>
<path d="M13.3628 8.8752H10.4379C10.3409 8.8752 10.2479 8.83669 10.1793 8.76812C10.1108 8.69954 10.0723 8.60655 10.0723 8.50958V7.0471C10.0723 6.56226 10.2648 6.09728 10.6077 5.75443C10.9505 5.41159 11.4156 5.21899 11.9004 5.21899C12.3852 5.21899 12.8501 5.41159 13.193 5.75443C13.5358 6.09728 13.7285 6.56226 13.7285 7.0471V8.50958C13.7285 8.60655 13.6898 8.69954 13.6213 8.76812C13.5528 8.83669 13.4599 8.8752 13.3628 8.8752ZM10.8035 8.14397H12.9972V7.0471C12.9972 6.7562 12.8817 6.4772 12.676 6.27151C12.4702 6.0658 12.1913 5.95023 11.9004 5.95023C11.6095 5.95023 11.3305 6.0658 11.1248 6.27151C10.919 6.4772 10.8035 6.7562 10.8035 7.0471V8.14397Z" fill="#CFD8DC"/>
<path d="M10.0721 8.8752C10.0721 7.65646 9.46273 5.21899 11.9002 5.21899C14.199 5.21899 13.7283 7.65646 13.7283 8.8752" stroke="white" stroke-width="0.4"/>
<path d="M14.4593 7.90015H9.34061C8.60021 7.90015 8 8.50036 8 9.24073V14.3594C8 15.0998 8.6002 15.7 9.34061 15.7H14.4593C15.1998 15.7 15.7999 15.0998 15.7999 14.3594V9.24073C15.7999 8.50037 15.1997 7.90015 14.4593 7.90015Z" fill="#78909C" stroke="white" stroke-width="0.4"/>
<path d="M11.9001 12.8971C12.5059 12.8971 12.9969 12.4059 12.9969 11.8002C12.9969 11.1944 12.5059 10.7034 11.9001 10.7034C11.2943 10.7034 10.8032 11.1944 10.8032 11.8002C10.8032 12.4059 11.2943 12.8971 11.9001 12.8971Z" fill="#CFD8DC"/>
</svg>
