<svg xmlns="http://www.w3.org/2000/svg" viewBox="0 0 83.29 70.55"><defs><style>.cls-1,.cls-2{fill:#d4d4d4;}.cls-2{fill-rule:evenodd;}</style></defs><g id="Layer_2" data-name="Layer 2"><g id="시안07"><g id="시안07-2" data-name="시안07"><path class="cls-1" d="M19.75.1A41.58,41.58,0,0,1,35,2.79,34.71,34.71,0,0,1,46.77,10.2a33.3,33.3,0,0,1,7.56,11.17,36,36,0,0,1,2.69,14,35.94,35.94,0,0,1-2.69,14,33.3,33.3,0,0,1-7.56,11.17A34.89,34.89,0,0,1,35,67.87a41.79,41.79,0,0,1-15.25,2.68H0V.1ZM12.24,10.48V60.17h7.51a27.29,27.29,0,0,0,10.19-1.85,23,23,0,0,0,7.93-5.19A23.54,23.54,0,0,0,43,45.25a26.52,26.52,0,0,0,1.81-9.92A26.45,26.45,0,0,0,43,25.41a23.34,23.34,0,0,0-5.1-7.88,22.93,22.93,0,0,0-7.93-5.2,27.29,27.29,0,0,0-10.19-1.85Z"/><path class="cls-2" d="M74.65,0a8.64,8.64,0,0,0-3,16.75l-.47,4.84,7-5.05A8.64,8.64,0,0,0,74.65,0Z"/></g></g></g></svg>