<svg width="16" height="16" viewBox="0 0 16 16" fill="none" xmlns="http://www.w3.org/2000/svg">
<g clip-path="url(#clip0_2228:42)">
<path d="M10.9177 1.03613L13.6997 3.93614V14.9642H3.30713V15.0002H13.7352V3.97264L10.9177 1.03613Z" fill="#909090"/>
<path d="M10.883 1H3.27148V14.964H13.6995V3.93652L10.8825 1" fill="#F4F4F4"/>
<path d="M3.19501 1.75H0V5.16351H10.05V1.75H3.19501Z" fill="#7A7B7C"/>
<path d="M10.1035 5.10571H0.0649414V1.6897H10.1035V5.10571Z" fill="#DD2025"/>
<path d="M3.39327 2.26709H2.73975V4.66711H3.25377V3.8576L3.36725 3.86409C3.47756 3.86219 3.58678 3.84244 3.69075 3.80558C3.78192 3.77425 3.86576 3.72474 3.93727 3.6601C4.01 3.59852 4.06736 3.52078 4.10476 3.43308C4.1549 3.28733 4.17281 3.13243 4.15726 2.97909C4.15415 2.86955 4.13492 2.76105 4.10026 2.65709C4.06869 2.58204 4.02186 2.51439 3.96272 2.45844C3.90358 2.40248 3.83342 2.35946 3.75674 2.33209C3.69045 2.30809 3.62195 2.29067 3.55225 2.28009C3.49948 2.27194 3.44616 2.2676 3.39276 2.26709H3.39327ZM3.29827 3.41409H3.25377V2.67409H3.35025C3.39285 2.67102 3.4356 2.67756 3.4753 2.69322C3.51502 2.70889 3.55074 2.73328 3.57975 2.76459C3.63991 2.8451 3.67207 2.94309 3.67125 3.04359C3.67125 3.16661 3.67125 3.27809 3.56025 3.35658C3.48031 3.40057 3.38926 3.42037 3.29827 3.41358" fill="#464648"/>
<path d="M5.13405 2.26059C5.07854 2.26059 5.02453 2.26459 4.98655 2.26609L4.86755 2.26909H4.47754V4.6691H4.93653C5.11196 4.6739 5.2866 4.64417 5.45055 4.58159C5.58251 4.52927 5.69934 4.44489 5.79054 4.33609C5.87923 4.22633 5.94287 4.09851 5.97704 3.9616C6.01632 3.80652 6.03549 3.64706 6.03404 3.48709C6.04373 3.29817 6.02912 3.1088 5.99054 2.92359C5.95395 2.78727 5.88536 2.66164 5.79054 2.55709C5.71615 2.47267 5.62507 2.40458 5.52304 2.35709C5.43543 2.31655 5.34326 2.28667 5.24853 2.26809C5.21088 2.26187 5.17273 2.25902 5.13454 2.25959L5.13405 2.26059ZM5.04355 4.22811H4.99356V2.69609H5.00005C5.10311 2.68423 5.20741 2.70283 5.30003 2.74959C5.36787 2.80376 5.42314 2.87199 5.46205 2.94959C5.50402 3.03127 5.52823 3.1209 5.53306 3.21259C5.53756 3.3226 5.53306 3.41259 5.53306 3.48709C5.53508 3.57292 5.52956 3.65875 5.51655 3.74361C5.50112 3.8307 5.47265 3.91499 5.43205 3.9936C5.3861 4.06669 5.324 4.12824 5.25055 4.17359C5.18885 4.2135 5.11579 4.23212 5.04255 4.2266" fill="#464648"/>
<path d="M7.58265 2.26904H6.36768V4.66906H6.88167V3.71706H7.53166V3.27105H6.88167V2.71505H7.58166V2.26904" fill="#464648"/>
<path d="M9.75851 10.1278C9.75851 10.1278 11.3525 9.83877 11.3525 10.3833C11.3525 10.9278 10.365 10.7063 9.75851 10.1278ZM8.58003 10.1692C8.32677 10.2252 8.07995 10.3071 7.84351 10.4138L8.04351 9.96375C8.24351 9.51376 8.451 8.90026 8.451 8.90026C8.68967 9.30192 8.96735 9.67907 9.28001 10.0263C9.04421 10.0614 8.81055 10.1095 8.58003 10.1703V10.1692ZM7.94902 6.91925C7.94902 6.44474 8.1025 6.31526 8.22202 6.31526C8.34151 6.31526 8.47603 6.37274 8.48052 6.78475C8.44158 7.19904 8.35485 7.60743 8.22202 8.00175C8.04007 7.67067 7.94591 7.29854 7.94851 6.92076L7.94902 6.91925ZM5.62452 12.1773C5.13549 11.8848 6.65 10.9843 6.92451 10.9553C6.923 10.9558 6.13652 12.4833 5.62452 12.1773ZM11.818 10.4478C11.813 10.3978 11.768 9.84426 10.783 9.86775C10.3725 9.86114 9.9621 9.89009 9.55651 9.95427C9.16364 9.55847 8.82534 9.11201 8.5505 8.62675C8.72364 8.12646 8.82842 7.60507 8.86202 7.07674C8.84753 6.47674 8.70401 6.13274 8.24403 6.13775C7.78401 6.14276 7.71702 6.54524 7.77752 7.14424C7.83678 7.54678 7.94857 7.93981 8.11002 8.31324C8.11002 8.31324 7.89752 8.97477 7.61652 9.63276C7.3355 10.2908 7.14353 10.6358 7.14353 10.6358C6.65486 10.7948 6.19487 11.0312 5.78102 11.3358C5.369 11.7193 5.20151 12.0138 5.41851 12.3083C5.6055 12.5623 6.26002 12.6198 6.84502 11.8533C7.15584 11.4574 7.4398 11.0411 7.69501 10.6073C7.69501 10.6073 8.587 10.3628 8.86453 10.2958C9.14202 10.2287 9.47751 10.1758 9.47751 10.1758C9.47751 10.1758 10.292 10.9953 11.0775 10.9663C11.863 10.9372 11.825 10.4968 11.82 10.4488" fill="#DD2025"/>
<path d="M10.8442 1.03857V3.97508H13.6608L10.8442 1.03857Z" fill="#909090"/>
<path d="M10.8833 1V3.93652H13.6998L10.8833 1Z" fill="#F4F4F4"/>
<path d="M3.35516 2.22852H2.70166V4.62852H3.21765V3.81952L3.33167 3.82601C3.44195 3.82411 3.5512 3.80437 3.65517 3.76751C3.74631 3.73614 3.83015 3.68666 3.90166 3.62203C3.97387 3.56026 4.03069 3.48256 4.06767 3.39501C4.11781 3.24926 4.13572 3.09436 4.12017 2.94102C4.11703 2.83147 4.09783 2.72298 4.06317 2.61902C4.0316 2.54397 3.98474 2.47632 3.92563 2.42036C3.86649 2.36441 3.79633 2.32138 3.71966 2.29402C3.65306 2.26978 3.58423 2.2522 3.51416 2.24151C3.46136 2.23337 3.40808 2.22903 3.35467 2.22852H3.35516ZM3.26015 3.37551H3.21565V2.63551H3.31265C3.35525 2.63244 3.39799 2.63898 3.43772 2.65465C3.47742 2.67031 3.51313 2.6947 3.54218 2.72602C3.60231 2.80652 3.63446 2.90452 3.63365 3.00502C3.63365 3.12802 3.63365 3.23951 3.52267 3.31803C3.4427 3.36201 3.35168 3.38182 3.26067 3.37502" fill="white"/>
<path d="M5.09592 2.22202C5.04044 2.22202 4.98643 2.22602 4.94842 2.22752L4.83093 2.23052H4.44092V4.63052H4.89994C5.07533 4.63532 5.25001 4.60561 5.41393 4.54303C5.54589 4.49068 5.66275 4.40631 5.75395 4.29754C5.84261 4.18774 5.90628 4.05995 5.94042 3.92301C5.97973 3.76797 5.99887 3.60848 5.99745 3.44851C6.00714 3.25959 5.99253 3.07021 5.95395 2.88502C5.91733 2.7487 5.84877 2.62306 5.75395 2.51852C5.67953 2.4341 5.58845 2.366 5.48645 2.31852C5.39884 2.27798 5.30667 2.24809 5.21194 2.22952C5.17426 2.22329 5.13611 2.22045 5.09795 2.22102L5.09592 2.22202ZM5.00693 4.18952H4.95693V2.65752H4.96343C5.06652 2.64566 5.17082 2.66426 5.26344 2.71102C5.33127 2.76518 5.38655 2.83342 5.42543 2.91102C5.46743 2.99269 5.49161 3.08232 5.49644 3.17403C5.50094 3.28401 5.49644 3.37403 5.49644 3.44851C5.49846 3.53433 5.49294 3.62016 5.47992 3.70502C5.46453 3.79215 5.43603 3.87643 5.39543 3.95501C5.34948 4.0281 5.28738 4.08969 5.21393 4.13503C5.15226 4.17491 5.0792 4.19354 5.00593 4.18801" fill="white"/>
<path d="M7.54362 2.23071H6.32861V4.6307H6.84261V3.6787H7.49263V3.23272H6.84261V2.67672H7.54262V2.23071" fill="white"/>
<path d="M10.5015 15.0005L6.00146 10.1591H8.42454V6.00049H12.5784V10.1591H15.0015L10.5015 15.0005Z" fill="#01963D" stroke="white"/>
</g>
<defs>
<clipPath id="clip0_2228:42">
<rect width="16" height="16" fill="white"/>
</clipPath>
</defs>
</svg>
