<svg width="36" height="36" viewBox="0 0 36 36" fill="none" xmlns="http://www.w3.org/2000/svg">
<path d="M26.1 15.57V15.8903L26.3909 16.0242L33.3175 19.2127C33.4023 19.2536 33.4738 19.3176 33.5237 19.3974C33.5742 19.478 33.6007 19.5713 33.6 19.6664V19.67L33.6 29.45L33.6 29.4513C33.6002 29.5469 33.573 29.6406 33.5216 29.7212C33.4703 29.8018 33.3969 29.866 33.3103 29.9061C33.3102 29.9062 33.3101 29.9062 33.31 29.9063L25.811 33.3558L25.81 33.3563C25.7442 33.3867 25.6725 33.4025 25.6 33.4025C25.5275 33.4025 25.4558 33.3867 25.39 33.3563L25.3891 33.3559L18.3091 30.0959L18.1 29.9996L17.8909 30.0959L10.8109 33.3559L10.81 33.3563C10.7442 33.3867 10.6725 33.4025 10.6 33.4025C10.5275 33.4025 10.4558 33.3867 10.39 33.3563L10.3889 33.3558L2.88998 29.9063C2.88982 29.9062 2.88967 29.9061 2.88952 29.9061C2.80293 29.8659 2.72965 29.8017 2.67834 29.7212C2.62694 29.6406 2.59974 29.5469 2.59998 29.4513V29.45L2.59998 19.67L2.59998 19.6688C2.59974 19.5732 2.62694 19.4795 2.67834 19.3988C2.72959 19.3184 2.80278 19.2543 2.88926 19.2141C2.8895 19.214 2.88974 19.2139 2.88998 19.2138L9.78926 16.0341L10.08 15.9001V15.58L10.08 6.44002L10.08 6.43879C10.0797 6.34315 10.1069 6.24946 10.1583 6.16881C10.2096 6.08832 10.2829 6.0242 10.3695 5.98402C10.3696 5.98394 10.3698 5.98387 10.37 5.98379L17.8689 2.53427L17.87 2.53379C17.9358 2.50333 18.0075 2.48755 18.08 2.48755C18.1525 2.48755 18.2242 2.50333 18.29 2.53379L18.291 2.53427L25.791 5.98427L25.791 5.98436L25.8 5.98831C25.8879 6.02666 25.963 6.08946 26.0161 6.16925C26.0687 6.24808 26.0978 6.34021 26.1 6.43488V15.57ZM34.1 29.45V19.67V29.45ZM30.9274 20.125L31.9209 19.672L30.9289 19.2158L25.8189 16.8658L25.61 16.7697L25.4011 16.8658L20.2911 19.2158L19.2991 19.672L20.2925 20.125L25.4025 22.455L25.61 22.5495L25.8174 22.455L30.9274 20.125ZM18.3089 3.62576L18.0998 3.52959L17.8907 3.62591L12.7907 5.97591L11.8052 6.43002L12.7907 6.88413L17.8907 9.23413L18.0998 9.33046L18.3089 9.23429L23.4189 6.88429L24.4067 6.43002L23.4189 5.97576L18.3089 3.62576ZM10.8089 16.8558L10.5995 16.7595L10.3903 16.8561L5.28034 19.2161L4.29117 19.6729L5.28254 20.125L10.3925 22.455L10.6004 22.5498L10.8082 22.4546L15.9182 20.1146L16.9088 19.661L15.9189 19.2058L10.8089 16.8558ZM17.3095 29.254L17.6008 29.1196L17.6 28.7987L17.58 21.1987L17.5779 20.4202L16.8708 20.7459L10.795 23.544C10.7944 23.5442 10.7938 23.5445 10.7932 23.5448C10.7293 23.5732 10.66 23.5879 10.59 23.5879C10.5196 23.5879 10.4501 23.5731 10.3859 23.5444C10.3856 23.5443 10.3853 23.5441 10.385 23.544L4.30727 20.775L3.59998 20.4528V21.23V28.8V29.1199L3.89045 29.254L10.3905 32.254L10.6 32.3507L10.8095 32.254L17.3095 29.254ZM11.1 15.57V15.8895L11.3899 16.0237L17.8899 19.0337L18.0996 19.1309L18.3095 19.034L24.8095 16.034L25.1 15.8999V15.58V8.00002V7.21929L24.3908 7.54587L18.3108 10.3459L18.31 10.3463C18.2442 10.3767 18.1725 10.3925 18.1 10.3925C18.0275 10.3925 17.9558 10.3767 17.89 10.3463L17.8891 10.3459L11.8091 7.54587L11.1 7.21929V8.00002V15.57ZM32.3195 29.264L32.6112 29.1294L32.61 28.8081L32.58 21.1981L32.5769 20.4207L31.8708 20.7459L25.7947 23.5441C25.7317 23.5715 25.6637 23.5857 25.595 23.5857C25.526 23.5857 25.4577 23.5714 25.3945 23.5438L19.3076 20.7652L18.6 20.4422V21.22V28.81V29.1301L18.8907 29.2641L25.4007 32.2641L25.6101 32.3606L25.8195 32.264L32.3195 29.264Z" fill="#072957" stroke="#072957"/>
</svg>
