<svg xmlns="http://www.w3.org/2000/svg" viewBox="0 0 233.17 213.5"><defs><style>.cls-1{isolation:isolate;}.cls-11,.cls-2,.cls-33{fill:#fff;}.cls-2,.cls-29,.cls-3{opacity:0.3;}.cls-3{fill:#a8bcff;}.cls-4{fill:#a2c5f6;}.cls-5{fill:#7ab6f6;}.cls-6{fill:#bfd4f8;}.cls-7{fill:#5c75c3;}.cls-8{fill:#d3dcff;}.cls-9{fill:#e6edff;}.cls-10{fill:#a0ace9;}.cls-12{fill:#2a2b7c;}.cls-13{fill:#8ec5f6;}.cls-14{fill:#ff98a6;}.cls-15{fill:#f1a09d;}.cls-16{fill:#b0bcd8;}.cls-17{fill:#ffc5c0;}.cls-18{fill:#5c61c3;}.cls-19{fill:#3d4166;}.cls-20,.cls-21{fill:#ecb49f;}.cls-21,.cls-34{mix-blend-mode:multiply;}.cls-22{fill:#2e3054;}.cls-23{fill:#97b8da;}.cls-24{fill:#e4edf1;}.cls-25{fill:#4a63b1;}.cls-26{fill:#fa7071;}.cls-27{fill:#8093e9;}.cls-28{fill:#0b1238;}.cls-29{fill:#da97b8;}.cls-30{fill:#f5ab84;}.cls-31{fill:#f5b29c;}.cls-32{fill:#df5244;}.cls-33{opacity:0.4;}.cls-34{fill:#b9b3c0;}</style></defs><g class="cls-1"><g id="Layer_2" data-name="Layer 2"><g id="Layer_2-2" data-name="Layer 2"><path class="cls-2" d="M233.17,53c0,24.82-21,44.95-46.94,44.95S139.28,77.81,139.28,53s21-44.94,46.95-44.94S233.17,28.17,233.17,53Z"/><path class="cls-3" d="M168.44,35.5A35.32,35.32,0,1,1,133.13.19,35.31,35.31,0,0,1,168.44,35.5Z"/><polygon class="cls-4" points="217.72 34.41 110.88 34.41 78.72 44.29 86.16 85.47 217.72 48.61 217.72 34.41"/><path class="cls-5" d="M122.83,40.27c0,.79-4.93,1.44-11,1.44s-11-.65-11-1.44,4.92-1.44,11-1.44S122.83,39.47,122.83,40.27Z"/><polygon class="cls-6" points="218.27 163.89 186.11 175.57 185.78 46.2 218.07 35.03 218.27 163.89"/><rect class="cls-7" x="78.64" y="43.94" width="107.99" height="132.03"/><rect class="cls-5" x="84.92" y="46.48" width="94.22" height="41.19"/><rect class="cls-7" x="121.31" y="54.38" width="21.44" height="4.8"/><rect class="cls-8" x="121.31" y="52.12" width="21.44" height="4.8"/><rect class="cls-9" x="97.87" y="71.02" width="77.86" height="51.34"/><rect class="cls-8" x="97.36" y="72.39" width="77.86" height="51.34" transform="translate(-6.07 9.04) rotate(-3.72)"/><rect class="cls-10" x="94.6" y="72.44" width="76.65" height="51.34" transform="translate(-1.33 1.83) rotate(-0.78)"/><rect class="cls-8" x="91.32" y="73" width="77.86" height="51.34"/><rect class="cls-9" x="88.05" y="74.69" width="77.86" height="51.34" transform="translate(-2.22 2.87) rotate(-1.28)"/><rect class="cls-5" x="84.92" y="132.52" width="94.22" height="41.19"/><path class="cls-3" d="M109.43,192.35c0,.74-3.71,1.33-8.28,1.33s-8.28-.59-8.28-1.33,3.71-1.32,8.28-1.32S109.43,191.62,109.43,192.35Z"/><path class="cls-11" d="M102.55,191.85c.46-4.61,1.35-9.44.88-14.11-.13-1.28-1.22-7-3.28-5.68-1.65,1.06-.57,4.92-.55,6.52a48.77,48.77,0,0,0,2.06,13Z"/><path class="cls-12" d="M99.62,192.15l-.21-.09a4.78,4.78,0,0,1-2.37-1.8,1.59,1.59,0,0,1-.14-1.57.9.9,0,0,1,.8-.43,1.58,1.58,0,0,1,.75.21c-.88-2.26-1.85-5.71,0-6.6a1.21,1.21,0,0,1,.54-.14c1.29,0,1.73,2.46,2,4.08.07.35.12.65.17.84.14.56.31,1.15.48,1.72a27.6,27.6,0,0,1,1,4l0,.2Zm-1.07-10c-1.79.88-.35,5,.35,6.66l.21.52-.44-.35a1.6,1.6,0,0,0-1-.41.63.63,0,0,0-.55.29,1.36,1.36,0,0,0,.15,1.28,4.41,4.41,0,0,0,2.24,1.67l.14.07,2.59.4a30.59,30.59,0,0,0-.93-3.81c-.16-.57-.33-1.16-.48-1.73,0-.2-.1-.5-.17-.86C100.45,184.52,100,182,99,182A.91.91,0,0,0,98.55,182.13Z"/><path class="cls-13" d="M102.56,192.62c-.65-3,.82-7.79,2-10.66.38-.93,2.47-4,3.78-3.39s-.48,3.9-1,4.67a2.33,2.33,0,0,1,1.77-.82c1.29,0,1,.27.89,1.33-.2,1.63-1.44,2.54-2.57,3.5.84-.32,2.19-.26,2.14,1S102.56,192.62,102.56,192.62Z"/><rect class="cls-14" x="142.27" y="70.04" width="13.28" height="19.01"/><rect class="cls-7" x="121.31" y="141.26" width="21.44" height="4.8"/><rect class="cls-8" x="121.31" y="139.01" width="21.44" height="4.8"/><rect class="cls-10" x="97.1" y="62.58" width="51.34" height="77.86" transform="translate(19.7 222.97) rotate(-89.27)"/><rect class="cls-8" x="98.6" y="62.28" width="51.34" height="77.86" transform="translate(15.08 218.52) rotate(-86.21)"/><rect class="cls-9" x="95.33" y="63.97" width="51.34" height="77.86" transform="translate(15.39 221.54) rotate(-88.7)"/><rect class="cls-10" x="78.8" y="78.64" width="77.86" height="51.34" transform="translate(-2.62 3.03) rotate(-1.46)"/><path class="cls-2" d="M211.41,154.92a7.65,7.65,0,0,1-5.64-7.75c.12-1.95,1-1.71,2.17-2.88s.57-1.72-.49-3.11c-1.95-2.54-3.78-5.39-3-8.77.75-3.19,4.54-3.14,3.7-6.48-1.07-4.3-.65-8.57-.15-13,.29-2.58,1.23-8.89,4.78-9,3.35-.09,3.19,6.16,3.26,8.27s-.36,3.34,1.16,4.45c1.93,1.42,4.18,1.9,4.58,4.74.48,3.35-3.23,4.76-3.42,7.74-.15,2.47,3.39,3.9,4.64,5.93,2.36,3.82-2.23,3.84-2.62,6.89a1.36,1.36,0,0,1-.24.5c1.29,1,3.06,1.49,3.8,3.06a4.59,4.59,0,0,1-1,5.09c-2.53,2.82-7.29,5.3-11.09,4.4Z"/><path class="cls-15" d="M211.41,154.92a7.65,7.65,0,0,1-5.64-7.75c.12-1.95,1-1.71,2.17-2.88s.57-1.72-.49-3.11c-1.95-2.54-3.78-5.39-3-8.77.75-3.19,4.54-3.14,3.7-6.48-1.07-4.3-.65-8.57-.15-13,.29-2.58,1.23-8.89,4.78-9,3.35-.09,3.19,6.16,3.26,8.27s-.36,3.34,1.16,4.45c1.93,1.42,4.18,1.9,4.58,4.74.48,3.35-3.23,4.76-3.42,7.74-.15,2.47,3.39,3.9,4.64,5.93,2.36,3.82-2.23,3.84-2.62,6.89a1.36,1.36,0,0,1-.24.5c1.29,1,3.06,1.49,3.8,3.06a4.59,4.59,0,0,1-1,5.09c-2.53,2.82-7.29,5.3-11.09,4.4Z"/><path class="cls-16" d="M219.36,177.05c0,.28-2.8.51-6.27.51s-6.27-.23-6.27-.51,2.81-.51,6.27-.51S219.36,176.77,219.36,177.05Z"/><rect class="cls-11" x="212.71" y="103.97" width="0.17" height="71.22"/><path class="cls-11" d="M212.85,129.77l8.85-8.85-.06-.19-8.91,8.92Z"/><path class="cls-11" d="M212.85,127.07l7.92-7.92-.12-.12L212.73,127Z"/><path class="cls-11" d="M212.85,139.31l7.16-7.15a.74.74,0,0,0-.13-.12l-7.15,7.15Z"/><path class="cls-11" d="M212.73,115.25l.12.12,3.2-3.19c0-.08,0-.16,0-.24Z"/><path class="cls-11" d="M212.73,140.81l.12.12,8-8-.13-.11Z"/><polygon class="cls-11" points="222.63 144.05 212.73 153.95 212.85 154.07 222.75 144.17 222.63 144.05"/><rect class="cls-11" x="210.78" y="139.17" width="13.72" height="0.17" transform="translate(-34.75 194.58) rotate(-44.98)"/><path class="cls-11" d="M212.86,134.05l-5.38-5.36-.12.12,5.46,5.46Z"/><path class="cls-11" d="M212.79,135.93l-6.35-6.31-.13.11,6.51,6.52Z"/><path class="cls-11" d="M212.83,148.21l-4.46-4.42a1.34,1.34,0,0,1-.11.14l4.56,4.56Z"/><path class="cls-11" d="M212.73,151.25l.12.12,8.26-8.26L221,143Z"/><path class="cls-11" d="M208.93,108.24l3.89,3.89,0-.29-3.8-3.78Z"/><path class="cls-11" d="M212.86,121.18l-5.18-5.07c0,.07,0,.15,0,.22l5.15,5.16Z"/><path class="cls-11" d="M212.83,123l-5.27-5.2c0,.07,0,.15,0,.23l5.27,5.27Z"/><rect class="cls-12" x="212.67" y="155.17" width="0.28" height="20.03"/><path class="cls-17" d="M213.87,176.69s-4.91-17.59-8.05-9.91S213.87,176.69,213.87,176.69Z"/><path class="cls-12" d="M213.73,177.41l0-.53c0-.56-.74-13.87,2.78-17.59a2.8,2.8,0,0,1,2.45-.95,2,2,0,0,1,1.7,1.14c1.89,4-6.27,16.93-6.61,17.48Zm4.85-18.75a2.5,2.5,0,0,0-1.85.86c-3,3.2-2.81,14.2-2.71,16.79,1.46-2.4,7.92-13.3,6.3-16.68a1.65,1.65,0,0,0-1.43-.95Z"/><path class="cls-3" d="M76.83,181.44c0,.74-6.79,1.35-15.17,1.35s-15.17-.61-15.17-1.35,6.8-1.36,15.17-1.36S76.83,180.69,76.83,181.44Z"/><path class="cls-7" d="M54.77,169.82c0,6.53,2.73,11.83,6.09,11.83s6.1-5.3,6.1-11.83Z"/><path class="cls-14" d="M62.07,170.67c1.84-1,5.42-2.08,6.16-4.55,1.19-4-3.55-3.11-5.53-2.2,1.12-1.08,5.91-3.34,4.78-5.42s-4.71,1.27-4.48,3.09c1.41-2.88,2.29-9.9.34-12.73-1.75-2.53-3.51-.36-3.86,1.88a14.78,14.78,0,0,0,1.38,8.64c-.88-1.36-2.8-4.44-4.79-3,.28,2.7,3.1,5.28,4.28,7.61-1.25-.86-5.24-2-5.06.63.16,2.31,4.78,3,5.65,4.51Z"/><path class="cls-18" d="M61.51,169.92c.34-1.44.6-4.16,1.72-5.26,1.71-1.69,1.54.85.79,1.91,1.78-1.47,4.46-5.72,6.71-6.19,3.34-.7-1.52,3.88-2.06,4.62,1.41-.15,6.4-2.42,6.56-.16.18,2.55-5.84,2.85-7.46,3.43,1,.62,2.24,1.6,2,2.93-2.16.78-3.1-.31-4.86-1.11a2.7,2.7,0,0,1-4.14.21Z"/><path class="cls-12" d="M62.07,171.05c-.38-.52-3.11-9.08-4-5.32-.94-1.81-3.86-8.08-6.49-5.21s1.22,6.53,4,6.76c-1.24.9-3,2.45-.69,3.21,1.63.51,3.84-.54,5.46-.57Z"/><rect class="cls-7" x="117.22" y="72.15" width="13.28" height="19.01"/><polygon class="cls-10" points="84.5 129.98 52.34 140.7 52.34 99.51 84.5 89.64 84.5 129.98"/><rect class="cls-8" x="75.53" y="79.2" width="77.86" height="51.34"/><rect class="cls-9" x="84.91" y="67.03" width="51.34" height="77.86" transform="translate(0.94 212.9) rotate(-88.06)"/><rect class="cls-5" x="80.7" y="77.58" width="13.28" height="19.01"/><rect class="cls-8" x="68.98" y="82.3" width="77.86" height="51.34"/><rect class="cls-11" x="79.14" y="71.02" width="51.34" height="77.86" transform="translate(-6.66 213.14) rotate(-89.16)"/><path class="cls-7" d="M107.54,131.5c.08,1.34,2.3,1.9,3,2.95a7.07,7.07,0,0,1-3.91-.31c-1-.64-.25-2.24-1.35-3.16Z"/><path class="cls-7" d="M91.58,131.08c-.08,1,.3,2.06.24,3.14a24.07,24.07,0,0,1-4.73.44c.4-1,1.27-1.16,2.17-1.75,1.46-.95.76-1.6,1.29-3Z"/><path class="cls-19" d="M102.64,94.43l5.73,37.37-3.35,0-7.41-26.68-5.24,27.28-2.62-.18s-.2-17-.1-22.24-.2-12.6,2.11-15.73C91.76,94.28,99.43,96.19,102.64,94.43Z"/><path class="cls-20" d="M94.94,76.29l.73-.18A3.34,3.34,0,0,0,98,74.23c.15-.28.74-2.44,1-2.48.92-.16,2.42-.49,3.09.22s.54,2.66.89,3.59c.19.5.69.86.9,1.32.81,1.81-1.19,4.78-1.8,6.47-.4,1.1-.72,3.09-2,3.68-2.75,1.29-4.54-4.89-5-6.28a18,18,0,0,1-.91-2.93C94,76.63,94.24,76.47,94.94,76.29Z"/><path class="cls-21" d="M103,75.69a2,2,0,0,0-.1-.27c-.31-.93-.17-2.83-.79-3.56a2.2,2.2,0,0,0-2-.35c-.3.43-.66,1-.89,1.33a3.23,3.23,0,0,0,.27.52C100.16,74.61,101.64,76,103,75.69Z"/><path class="cls-20" d="M99.57,73.34a4.78,4.78,0,0,1-.47-.58c-.92-1.41.1-4.53.92-5.9a3.21,3.21,0,0,1,3.69-1.64c3.48.8,2.5,7.39.16,9.32C102.66,75.53,100.66,74.48,99.57,73.34Z"/><path class="cls-11" d="M102.19,73a2.27,2.27,0,0,0,2.49.28S103.36,75.8,102.19,73Z"/><path class="cls-22" d="M98.51,71.83c-.34-1.89-.9-3.15-.68-4.84a4.05,4.05,0,0,1,4.09-3.16,6.42,6.42,0,0,1,4.24,2.2,2.81,2.81,0,0,1,.77,2.24c-.2,1.22-.57,1.39-1.25,1.44a4.1,4.1,0,0,1-1.12-.29c.21,1.94-2.2.26-2.86.18-1.43-.18-1.87,1.35-2.73,2.12Z"/><path class="cls-3" d="M152.31,203.49c0,1.08-9.76,1.95-21.8,1.95s-21.81-.87-21.81-1.95,9.77-2,21.81-2S152.31,202.42,152.31,203.49Z"/><path class="cls-3" d="M230.64,210.49c0,1.08-9.76,1.95-21.8,1.95S187,211.57,187,210.49s9.77-2,21.81-2S230.64,209.42,230.64,210.49Z"/><path class="cls-23" d="M110.83,28c1.15-2.24,3-3.35,2.25-6.27-.29-1.17-1.16-1.9-1.57-2.93-.51-1.29-.08-1.53.09-2.89.36-2.92-1.48-3.52-2.54-5.75-.74-1.55-.52-3.37-1.5-5S104.68,2,104.31,0c-.28,3.51-2.51,8.91.17,11.87a3.92,3.92,0,0,0-1.17,4.89c.36.8,1.53,1.43,1.73,2.27.29,1.15-.42,1.19-.52,2.2-.29,3.2,9,7.76,6.55,11Z"/><path class="cls-11" d="M105.44,6.93a7.82,7.82,0,0,1-2.1-1.18l0-.29a7.15,7.15,0,0,0,2,1.18c-.07-.44-.14-.88-.2-1.31L105,4.19c0-.36-.13-.72-.2-1.07s-.12-.6-.17-.89-.08-.41-.12-.64c-.09-.46-.19-1-.24-1.42,0-.06,0-.11,0-.17a4.34,4.34,0,0,0,.39,1.15c0,.13,0,.27.08.39s.09.45.12.64.11.6.17.89.15.72.2,1.08l.18,1.15c.14,1,.29,1.93.48,2.9.85-.54,1.24-2,1.43-3.37l.2.31c-.22,1.35-.65,2.81-1.58,3.32,0,.11,0,.21.07.32.2.94.44,1.87.71,2.79a8.81,8.81,0,0,0,1.76-3.28c0,.17.06.34.1.51a9.19,9.19,0,0,1-1.78,3.06c.23.79.47,1.57.71,2.34,0,.05,0,.08,0,.1l.2.65a8.76,8.76,0,0,1,.66-.82,8.12,8.12,0,0,0,.65-.8,6.33,6.33,0,0,0,.77-1.88l.19.25a6.28,6.28,0,0,1-.75,1.77,10.57,10.57,0,0,1-.67.83,6.26,6.26,0,0,0-.72.91l-.06,0c.3,1,.6,2,.87,3,0,0,0,.1,0,.15a5.35,5.35,0,0,1,.88-1.08,5.27,5.27,0,0,0,.54-.6,11.18,11.18,0,0,0,1.36-2.43c0,.15.06.31.08.48a11.87,11.87,0,0,1-1.24,2.09,6.83,6.83,0,0,1-.55.63,3.27,3.27,0,0,0-1,1.34c.43,1.6.88,3.29,1.36,4.94a27.27,27.27,0,0,1,.69,3.76c0,.1,0,.2,0,.3l-.13.24,0,1-.21-1.49a24.33,24.33,0,0,0-.69-3.74c-.47-1.65-.93-3.34-1.36-4.95-.05-.21-.1-.39-.15-.57-.09-.36-.19-.71-.29-1.07a7.69,7.69,0,0,0-1.6-.31,12.18,12.18,0,0,1-1.28-.22A7,7,0,0,1,103,15.46c0-.1,0-.21,0-.32a7.16,7.16,0,0,0,2.43,1.25c.39.09.82.15,1.25.21a8.62,8.62,0,0,1,1.48.27c-.24-.84-.5-1.68-.75-2.5a2.76,2.76,0,0,0-.88-.26,4,4,0,0,1-.74-.17,6.14,6.14,0,0,1-2.13-1.19l.15-.21a5.59,5.59,0,0,0,2.07,1.16,3.49,3.49,0,0,0,.69.16,5.71,5.71,0,0,1,.74.18c-.38-1.23-.77-2.48-1.1-3.75h-.28a6.13,6.13,0,0,1-2.55-.9L103.25,9a5.66,5.66,0,0,0,2.83,1c-.1-.39-.19-.79-.28-1.2C105.66,8.2,105.55,7.56,105.44,6.93Z"/><path class="cls-11" d="M111.06,30c0-.18-.06-.36-.1-.54a4.19,4.19,0,0,1,.27.51Z"/><path class="cls-12" d="M94.57,13.64c2.43,1.42,9.34.67,8.42,5,3.19-.43,4.18.82,4,3.85,0-.32,1.18-.1,1.34,0a3.06,3.06,0,0,1,.77,1,7.71,7.71,0,0,1,.69,2.92,26.12,26.12,0,0,0,.72,3.54c-2-2.49-9.42-2.44-8.12-5.48-1.14.14-3.24.53-4.16-.4-1.17-1.2.21-2.44,1.25-3-4.44-.56-4-2.49-3.37-4.68l-.78-.93A4.81,4.81,0,0,1,94.57,13.64Z"/><path class="cls-22" d="M111,30.6c6.08-3.73,6.06-18.77,6.06-18.93h-.2c0,.16,0,15.09-6,18.76Z"/><path class="cls-22" d="M113.1,28.32c0,.06-.76-3.52-2.4-3.26s2.41,3.32,2.41,3.32Z"/><path class="cls-22" d="M114.34,26.43s-1.56-4.09-2.8-3.27S114.34,26.43,114.34,26.43Z"/><path class="cls-22" d="M115.19,24.11s-2-4.38-3.51-3.27C110.52,21.69,115.19,24.11,115.19,24.11Z"/><path class="cls-22" d="M116.17,20s-1.52-4.29-2.73-3.21S116.17,20,116.17,20Z"/><path class="cls-22" d="M116,21.6s-2.54-3.85-3.41-2.48C112,20,116,21.6,116,21.6Z"/><path class="cls-22" d="M116.57,17.2s-1.77-4.66-3-3.45S116.57,17.2,116.57,17.2Z"/><path class="cls-22" d="M116.73,14.11s-1-4.09-1.69-2.87S116.73,14.11,116.73,14.11Z"/><path class="cls-22" d="M117,13s1.61-3.74.35-3.72S117,13,117,13Z"/><path class="cls-22" d="M116.73,14.11s3.81-1.13,2.74-2.2S116.73,14.11,116.73,14.11Z"/><path class="cls-22" d="M116.68,16.46s4.46-1.21,3.94-2.76S116.68,16.46,116.68,16.46Z"/><path class="cls-22" d="M116.23,18.78s5.91-1.38,5-2.94S116.23,18.78,116.23,18.78Z"/><path class="cls-22" d="M115.83,21s6.67-.68,6.18-2.49S115.83,21,115.83,21Z"/><path class="cls-22" d="M114.88,24.76s5.94-2.26,6.41-.58S114.88,24.76,114.88,24.76Z"/><path class="cls-22" d="M115.74,22.49s4.9-2.74,5.53-1.12S115.74,22.49,115.74,22.49Z"/><path class="cls-22" d="M114.43,26.08s5.33-1.31,5,.47-5.1-.12-5.1-.12Z"/><path class="cls-24" d="M104.27,27.13c0,7.18,2.57,13,5.75,13s5.74-5.82,5.74-13Z"/><path class="cls-25" d="M104.27,27.13c0,7.18,2.57,13,5.75,13s5.74-5.82,5.74-13Z"/><path class="cls-2" d="M105.39,29.28a1.21,1.21,0,1,0,1.21-1.12A1.17,1.17,0,0,0,105.39,29.28Z"/><rect class="cls-13" x="52.34" y="99.51" width="94.22" height="41.19"/><path class="cls-20" d="M84.43,97.59c-.71,1.13-3.63,4.55-3.51,4.72s1.78-1.39,2.09-1.67c-.16.36-1.38,2.13-1.17,2.25s2.3-2.44,2.93-2.92c.08.21-.6,1.61-.34,1.59.84,0,2.7-4.41.92-4.51C85.35,97.05,85.14,96.46,84.43,97.59Z"/><path class="cls-20" d="M114.49,96.07c.71,1.13,3.63,4.55,3.51,4.72s-1.78-1.38-2.09-1.67c.16.36,1.38,2.13,1.17,2.26s-2.3-2.45-2.93-2.93c-.08.21.6,1.61.34,1.59-.84,0-2.7-4.41-.92-4.51C113.57,95.53,113.78,94.94,114.49,96.07Z"/><path class="cls-26" d="M103.37,98c.14-2.28,1.29-11,1.31-13l3,4.84c1,1.35,4.28,7,4.73,7.29l2.12-1.63c-.34-.31-3.9-7.86-4-8.3a50.07,50.07,0,0,0-2.85-6.62c-1.24-2.53-.56-3.47-4.38-4.49,0,0,.86,1.73-2.81,1.89s-3.72-2.3-3.72-2.3-3.52-.3-5.54,2.18-2.87,5.43-4.51,8.92c-1.23,2.61-1.84,9.3-2.65,10.6l2.54,1c.31-.64.61-4.62,6.07-15.32,0,0-2.75,13.42-2.74,14.6a18.89,18.89,0,0,1,6.47-.23C100.44,97.91,103.37,98,103.37,98Z"/><path class="cls-27" d="M169,22.31s-3.3,8.05-5.68,8.88S152.05,31,152.05,31l.15-2.36s7,1.32,9.44-.49,2.92-6.64,5.21-7.21S169,22.31,169,22.31Z"/><path class="cls-20" d="M171.44,16.12,174.29,21s-2.17,2.85-4.2,1.76-1.78-2.32-1.36-2.92,0-2.76,0-2.76Z"/><path class="cls-28" d="M175.88,35.43c-4.83-3.16-17.6,4.36-18.67,5.25-.81.67,1,10.92,1.89,15.79.29,1.53.49,2.52.49,2.52s-1.85,1.93-1.44,3c0,0,4.7-3.14,3.8-4.47-.18-.15-.07-.46.9-.73-1.12-7.34.84-11.22-1.44-13.41,0,0,12.32-.33,13.94-1S180.71,38.6,175.88,35.43Z"/><path class="cls-28" d="M177,36.4s-18-8.06-19.21-7.92c-1.65.18-11.42,11.79-11.42,11.79a22.51,22.51,0,0,0-3.94,2l5.64.06.47-1.43s1.17.75,1.45.47c.83-.84,7.75-6,7.72-7.62l14.21,7.06S177,40.69,177,36.4Z"/><path class="cls-21" d="M172.05,17.16l-.61-1-2.2.77a3.28,3.28,0,0,0-.2.52c0,.13,0,.25-.07.37s0,.22,0,.33l-.07.12a6.19,6.19,0,0,1,0,1,1.28,1.28,0,0,0,1,.53C170.72,19.76,171.56,18.15,172.05,17.16Z"/><path class="cls-20" d="M166.83,13.73s-.07,4.69,2.48,5,3-2.17,3.34-4c.34-2,.17-2.7-2.8-3.12S166.83,13.73,166.83,13.73Z"/><path class="cls-28" d="M165.72,13.88c-.28-1.44.73-2.44,1.89-3.13a2.66,2.66,0,0,1,1.82-.47,4.29,4.29,0,0,1,2,1.3Z"/><path class="cls-28" d="M170.61,9.66c-1.82-.53-6,.79-5.94,3.16s3.86,1.2,5.24,1.29c.6,0,1-.4,1.51-.46h.13l.17,0c.56.23.34,1.49.63,2.06a2.39,2.39,0,0,0,.8-2.37A3.47,3.47,0,0,0,170.61,9.66Z"/><path class="cls-28" d="M178,35s2,7.42-4.35,7.59L170,34.57Z"/><path class="cls-6" d="M171.44,37.64c-2.75-1.52-2-2.71-2.57-5.51s-1.31-4-2.24-7.78,2.1-4.52,2.1-4.52-.53,1.2,1.42,1.67a5,5,0,0,0,3.75-.92s1.48.83,1.94,1.16c1.65,1.18,2.12,3.75,2.38,5.67.5,3.72.62,9.57.06,10.54S174.2,39.15,171.44,37.64Z"/><path class="cls-11" d="M149.79,23.43c.41,0,9.21,1.49,9.21,1.49l2.7,13.94-9.33-1.63Z"/><path class="cls-20" d="M161.84,34.25c-.48-.2-.81-1.55-1.08-1.21a1.13,1.13,0,0,0-.07.94s-1.42-1.28-2.17-1.15-.67,1.36.48,2.17,2,.74,3.38,1c2,.28.74-1,.74-1S162.31,34.46,161.84,34.25Z"/><path class="cls-27" d="M176.52,23.56s-1.42,8.06-3.45,9.54-10.29,3.32-10.29,3.32l-.54-2.3s6.36-.81,8.12-3.25S172,23.7,174,22.48A1.55,1.55,0,0,1,176.52,23.56Z"/><path class="cls-20" d="M150.61,28.3s1.21.2,1.42,1.08-1.15,1.56-1.15,1.56S149.73,28.91,150.61,28.3Z"/><polygon class="cls-27" points="179.28 129.02 147.12 140.7 147.12 99.51 179.28 89.64 179.28 129.02"/><rect class="cls-7" x="85.06" y="108.26" width="21.44" height="4.8"/><rect class="cls-8" x="85.06" y="106" width="21.44" height="4.8"/><path class="cls-29" d="M45.56,211.37c0,1.18-10.2,2.13-22.77,2.13S0,212.55,0,211.37s10.2-2.14,22.79-2.14S45.56,210.19,45.56,211.37Z"/><path class="cls-30" d="M25.45,208.93a1.26,1.26,0,0,1-1.16-1.06l0-1.82c.06-.28.11-.46.11-.46l-.1.14.38-16.29s3.47-20.92,2.66-24.43c-.52-2.28-6.37-1-8-1.26-2.68-.39-3.65,1.12-4.12,3.42a12.61,12.61,0,0,0-.21,1.3c-.91,7,4.77,13,4.56,20.05-.19,6.54,2.69,20,2.69,20l.25,1.79,5.15-.07S27.41,209.14,25.45,208.93Z"/><path class="cls-19" d="M25.91,209a4,4,0,0,1-3.53.23l.15,1.08,5.15-.07S27.44,209.33,25.91,209Z"/><path class="cls-31" d="M15.84,143a31.18,31.18,0,0,0-3,2.2s3.66-3.31,3.49-6.64,1.33-2.2,2.87-1.19c.92.59.68,2.88,1,4,.23.82.94,1.86.81,2.74-.27,1.79-1.61-.25-2.5-.71A5.26,5.26,0,0,0,15.84,143Z"/><path class="cls-31" d="M16.78,209.7a1.27,1.27,0,0,1-1-1.24l.34-1.78a4,4,0,0,1,.19-.44l-.13.12,3-16s6.83-20.08,6.61-23.67c-.15-2.33-6.12-2-7.71-2.54-2.58-.83-3.79.51-4.63,2.7-.15.39-.28.8-.42,1.24-2,6.78,2.59,13.64,1.24,20.52-1.25,6.43-.6,20.19-.6,20.19l-.05,1.81,5.09.77S18.69,210.22,16.78,209.7Z"/><path class="cls-19" d="M28.83,176.81c-.36-2.37-1.91-9.65-1.91-9.65s-.25-.69-.8-2.66c-.22-.8-.24-1.59-.47-2.36-.47-1.54-.81-1.39-2.49-1.47a18.09,18.09,0,0,0-7,.75,6.2,6.2,0,0,0-4,4.46c-.25,1.39,0,2.85-.27,4.25-.31,1.66-.45,15.87-2.56,15.51a19.34,19.34,0,0,0,2.75-.15,18.92,18.92,0,0,1,3,.56,40.54,40.54,0,0,0,5.59.84c2.74.15,6.34.92,8.87-.52,2.11-1.2,1.06-1.89.24-3.49C28.84,181.06,29.12,178.78,28.83,176.81Z"/><path class="cls-12" d="M19.09,142c-2.2-1.19-5.08.86-6.07,2.67-1.48,2.72-.43,7.09,0,10.1.35,2.61,1,5.3.29,7.92-.38,1.38-1.15,2.6-1.67,4-.69,1.81.24,1.75,2,1.74,3.17,0,6.22-.32,9.33-.47,1,0,2.43.25,3.33-.15,1.28-.58.82-1,.46-2.38-1.07-4.1-2.63-6.38-1.54-10.76.44-1.77,1.15-2.64.25-4.24a28.82,28.82,0,0,0-3.2-4.27c-.84-1-1.92-3.31-3-4Z"/><rect class="cls-10" x="6.68" y="145.19" width="18.43" height="28.61" transform="translate(-144.22 166.86) rotate(-86.95)"/><rect class="cls-11" x="3.68" y="151.26" width="28.7" height="18.48" transform="translate(-28.88 5.95) rotate(-10.48)"/><path class="cls-31" d="M17,142.57c-1.77-.32-2.83,1.11-4.32,4.23s-4.68,10-4.62,10.9c0,.76,1.82,1.87,2.32,2.3,1.58,1.36,3.2,2.68,4.76,4.06a25.89,25.89,0,0,1,4,4.06c.94,1.32,1.51,4.62,3.47,2.32,1.09-1.28-4.25-7.31-5.37-8.4-1.77-1.73-4.69-5.37-4.69-5.37a81.59,81.59,0,0,1,3.5-7.55C17.5,146.61,18.54,142.85,17,142.57Z"/><path class="cls-12" d="M17.16,142.18c-1.8-.33-2.88,1.12-4.39,4.29S8,156.6,8.07,157.55c.06.77,1.86,1.89,2.37,2.33,2.87,2.47,5.69,4.65,7.51,8.05,1.05-.8,3.11-2.54,3.11-2.54l-7.33-8.53A62.71,62.71,0,0,1,17,149.07C18.52,146.53,18.71,142.46,17.16,142.18Z"/><path class="cls-31" d="M16.69,139.53c-1.62-1.68-3-5-2.42-7.32s2.15-2.89,4.35-1.84,6,6.59,2.73,8c-.84.36-1.85.21-2.6.78Z"/><path class="cls-28" d="M14.39,129.07c2.34-1.41,6-2.06,6.76.57.68,2.2-2.25,3.49-3.9,3.42l.15,1s-1.43-.07-.95,1.07a1,1,0,0,0,1.58.42c-.61.33-.72,1.35-1.65,1.63a2.27,2.27,0,0,1-2.66-1c-1.23-1.48-2.13-3.48-1.21-5.28A5,5,0,0,1,14.39,129.07Z"/><polygon class="cls-31" points="21.34 132.9 23.21 134.67 21.8 135.62 21.34 132.9"/><path class="cls-19" d="M17.22,209.86a4,4,0,0,1-3.51-.35l0,1.09,5.09.77S18.69,210.42,17.22,209.86Z"/><path class="cls-28" d="M13.28,131.74c-2.82,1.55-6.46-2.31-3.94-4.75a3,3,0,0,1,4-.22c1.38,1.27,1,3.06,1.33,4.76Z"/><path class="cls-29" d="M182.56,195.83c0,.9-7.81,1.63-17.44,1.63s-17.45-.73-17.45-1.63,7.81-1.64,17.45-1.64S182.56,194.92,182.56,195.83Z"/><path class="cls-31" d="M163.11,174.4s2.49,12.39,2.89,15.13a17.75,17.75,0,0,0,1.59,4.9c.37,1.08-1.83,1-3.3,1.57l-3,.2a14.05,14.05,0,0,0,3.09-2.6c.62-1-2.78-9.61-2.78-9.61l-3.77-8.73Z"/><path class="cls-19" d="M167.59,194.43c-.08-.23-.18-.46-.29-.7l-.4.16a9.37,9.37,0,0,1-4,1.14c-.81.64-1.63,1.17-1.63,1.17l3-.2C165.76,195.39,168,195.51,167.59,194.43Z"/><path class="cls-32" d="M164.76,139.26c.94.84,1.26,2-.55,2.73s-5.76,1.8-8.8-1-3.68-4.79-3.68-4.79l1.23-1s2.1,3.4,5.35,4.35S163.69,138.28,164.76,139.26Z"/><path class="cls-12" d="M149.43,117.46s-.8,2.58.72,8.29l-.88.26.54-.16-.88.25c-1.73-5.65-3.77-7.42-3.77-7.42Z"/><path class="cls-12" d="M156.18,141.1a1.67,1.67,0,0,1-.22,1.4,2.2,2.2,0,0,1-1.24.92l-.29.08a2.05,2.05,0,0,1-2.6-1.26l-4.6-16.07a1.46,1.46,0,0,1,.19-1.18,1.8,1.8,0,0,1,1.05-.77l1-.29a1.64,1.64,0,0,1,2.08,1Z"/><path class="cls-33" d="M155.46,101.35a12.68,12.68,0,1,1-15.68-8.71A12.69,12.69,0,0,1,155.46,101.35Z"/><path class="cls-12" d="M157.09,100.89a14.38,14.38,0,1,0-9.88,17.78A14.38,14.38,0,0,0,157.09,100.89ZM146.75,117a12.68,12.68,0,1,1,8.71-15.68A12.67,12.67,0,0,1,146.75,117Z"/><path class="cls-31" d="M163.89,140.43c-.14.76,1.63,1,2.23,1.35a4.81,4.81,0,0,0,3.76,0c.61-.22,1.35.69,1.59,0a3,3,0,0,0-.86-2.9,2.94,2.94,0,0,1-1.31-2.48c-.81-.15-1.6-.33-2.42-.4a3,3,0,0,1-1.56,2.28A3.47,3.47,0,0,0,163.89,140.43Z"/><path class="cls-31" d="M171.39,171.13l-.81,24.68s-5.23.75-6.18.84,2.79-1.74,3.3-2.75a4.47,4.47,0,0,0,.85-3.9c-.32-2.58-3.25-17.08-3.25-17.08l6.06-2.13Z"/><path class="cls-14" d="M169.6,138.76s3.24-.14,2.25,4.08-1.66,8.42-1.66,8.42l-7.92.25s1.14-1.63.43-2.9-2.82-2.53-1-5.49,1.28-2.62,2.36-3.82S168.19,140,169.6,138.76Z"/><path class="cls-34" d="M166.41,137.3a2.69,2.69,0,0,0,.47-1.3c.82.07,1.61.25,2.42.4a2.06,2.06,0,0,0,0,.26A2.6,2.6,0,0,1,166.41,137.3Z"/><path class="cls-31" d="M166,136.33c-1.86-.63-.53-4.63,1.07-6.16.84-.8,2.13-1.64,3.33-1.35s3.06,1.35,2.9,2.75c-.09.71-.78,1.25-1.12,1.87a8.53,8.53,0,0,1-1.66,2.53C169.31,137,167.81,137,166,136.33Z"/><path class="cls-31" d="M150.74,134.51c.25.48,1,.66,1.32,1.13a18.42,18.42,0,0,1,1.46,2.25c.39-.47.28-.85.68-1.32.54-.63.54-.7.12-1.41-.21-.35-.43-.72-.61-1.09a3.81,3.81,0,0,0-.07-1.77c-.36-.85-.21,1.19-.35.88-.44-1-1.31-2.89-1.42-3s.56,2.19.2,2.45c-.33-.34-1-2.81-1.19-2.52a13.65,13.65,0,0,0,.54,3c-.13-.27-1.11-2.56-1.25-2.21a9.39,9.39,0,0,0,.83,2.82,13.2,13.2,0,0,0-1.25-1.61C149.75,132.3,150.6,134.25,150.74,134.51Z"/><path class="cls-28" d="M170.79,134.38c.63.28,1.09-.22,1.1-.84,0-1.06-.6-.69-1.14-.78-.05,0-.12-.16-.12-.16l.2-1.28s-2.44-.44-1.64-1.39c-.81-.09-2.95-.23-2.9-1.46.08-2.27,3.94-1.22,5-.74A5.19,5.19,0,0,1,174,130.3c.69,2-1.48,6.22-3.91,5.65Z"/><path class="cls-26" d="M171.05,140.06c1.36,1.2,1.82,2.87-.81,3.87s-8.26,1.15-9.35,1c-3.67-.38-8.8-9.12-8.8-9.12l1.8-1.41s3.34,6.11,7,6.75S169.5,138.69,171.05,140.06Z"/><path class="cls-22" d="M170.44,150l8.84,27s-2.9,1.39-12.59,2.09-15-3.19-15-3.19a43,43,0,0,1,3.49-11c2.46-4.76,7.74-15.3,7.74-15.3S167.46,150.88,170.44,150Z"/><path class="cls-28" d="M177.87,131a2.85,2.85,0,1,1-2.85-2.85A2.85,2.85,0,0,1,177.87,131Z"/><path class="cls-22" d="M170.63,194.27a6.82,6.82,0,0,1-4,.67c-1.22.88-2.88,1.77-2.21,1.71.95-.09,6.18-.84,6.18-.84Z"/><polygon class="cls-6" points="186.54 44.12 218.07 35.03 218.07 50.2 186.61 55.43 186.54 44.12"/></g></g></g></svg>