<svg xmlns="http://www.w3.org/2000/svg" viewBox="0 0 314.42 69.46"><defs><style>.cls-1{fill:#12254a;}.cls-2{fill:#fdd51a;}.cls-3{fill:#183051;}.cls-4{fill:#c42032;fill-rule:evenodd;}</style></defs><g id="Layer_2" data-name="Layer 2"><g id="시안01"><g id="black"><path class="cls-1" d="M59.48,16.29,31.93.39A2.93,2.93,0,0,0,29,.39L1.46,16.29A3,3,0,0,0,0,18.83v31.8a2.94,2.94,0,0,0,1.46,2.54L29,69.07a2.95,2.95,0,0,0,2.93,0l27.53-15.9a2.92,2.92,0,0,0,1.47-2.54V18.83A2.94,2.94,0,0,0,59.48,16.29Z"/><path class="cls-2" d="M33.16,36.38A1.62,1.62,0,0,1,33.81,35l7.36-4.45a1.58,1.58,0,0,1,1.58.27l1.89,1.11a2.89,2.89,0,0,0,3,0l8.69-5.39c.74-.47,1.82-.22,1.82,1.3l0,19.77c0,1.16-.08,1.85-.45,2.08l-22.64,13a1.13,1.13,0,0,1-1.67-1.1Z"/><path class="cls-3" d="M1.5,17.86l28.07,16a.9.9,0,0,1,.47.81L30,67.94a.93.93,0,0,1-1.39.81L1.76,53.31A3.36,3.36,0,0,1,.08,50.4l0-31.73A.93.93,0,0,1,1.5,17.86Z"/></g><path class="cls-1" d="M111.45,4.43a36.32,36.32,0,0,1,13.32,2.35,30.43,30.43,0,0,1,10.29,6.48,29.15,29.15,0,0,1,6.6,9.76A31.45,31.45,0,0,1,144,35.21a31.45,31.45,0,0,1-2.35,12.19,29.15,29.15,0,0,1-6.6,9.76,30.58,30.58,0,0,1-10.29,6.48A36.32,36.32,0,0,1,111.45,66H94.19V4.43Zm-6.57,9.07V56.92h6.57a23.78,23.78,0,0,0,8.91-1.62,20,20,0,0,0,6.92-4.54,20.53,20.53,0,0,0,4.46-6.88,23.33,23.33,0,0,0,1.58-8.67,23.33,23.33,0,0,0-1.58-8.67,20.53,20.53,0,0,0-4.46-6.88,20,20,0,0,0-6.92-4.54,23.78,23.78,0,0,0-8.91-1.62Z"/><path class="cls-1" d="M172,4.43h22.6a23.49,23.49,0,0,1,8.1,1.3,17.34,17.34,0,0,1,6,3.56,15.47,15.47,0,0,1,5,11.58,13,13,0,0,1-1.58,6.44,11,11,0,0,1-4.33,4.42,16,16,0,0,1,4.17,2.1,15.05,15.05,0,0,1,3.44,3.32,15.43,15.43,0,0,1,2.31,4.5,18,18,0,0,1-.69,12.76,17.78,17.78,0,0,1-4.37,6,21.68,21.68,0,0,1-6.84,4.09,24.76,24.76,0,0,1-9,1.54H172Zm10.69,9.07V28.41h11.91a8.33,8.33,0,0,0,6.27-2.23A7.4,7.4,0,0,0,203,20.87a7.11,7.11,0,0,0-2.15-5.22q-2.14-2.14-6.27-2.15Zm0,24V56.92h14.18a12.74,12.74,0,0,0,4.53-.77A10.67,10.67,0,0,0,204.9,54a8.91,8.91,0,0,0,2.23-3.12,9.4,9.4,0,0,0,0-7.45,8.91,8.91,0,0,0-2.23-3.12,10.65,10.65,0,0,0-3.48-2.1,12.52,12.52,0,0,0-4.53-.77Z"/><path class="cls-1" d="M246.13,19.41a22.91,22.91,0,0,1,9,1.75A21.47,21.47,0,0,1,262.29,26a22.4,22.4,0,0,1,4.78,7.53,26.4,26.4,0,0,1,1.74,9.76,26.4,26.4,0,0,1-1.74,9.76,22.4,22.4,0,0,1-4.78,7.53,21.47,21.47,0,0,1-7.17,4.86,22.91,22.91,0,0,1-9,1.74,23.21,23.21,0,0,1-9-1.74,21.54,21.54,0,0,1-7.21-4.86,22.15,22.15,0,0,1-4.74-7.53,27,27,0,0,1-1.7-9.76,27,27,0,0,1,1.7-9.76A22.15,22.15,0,0,1,229.89,26a21.54,21.54,0,0,1,7.21-4.86A23.22,23.22,0,0,1,246.13,19.41Zm0,39.05a10.76,10.76,0,0,0,4.82-1.1,11.62,11.62,0,0,0,3.89-3.12,15.57,15.57,0,0,0,2.63-4.77,18.39,18.39,0,0,0,1-6.16,18.39,18.39,0,0,0-1-6.16,15.75,15.75,0,0,0-2.63-4.78A11.72,11.72,0,0,0,251,29.26a11.11,11.11,0,0,0-9.64,0,11.68,11.68,0,0,0-3.88,3.11,15.77,15.77,0,0,0-2.64,4.78,18.39,18.39,0,0,0-1,6.16,18.39,18.39,0,0,0,1,6.16,15.59,15.59,0,0,0,2.64,4.77,11.59,11.59,0,0,0,3.88,3.12A10.79,10.79,0,0,0,246.13,58.46Z"/><path class="cls-1" d="M286.07,42.74,270.76,20.63h12l9.32,14.26,9.32-14.26h12L298.05,42.74,314.42,66H302.19L292.06,50.52,281.94,66H269.7Z"/><path class="cls-4" d="M156,4.37a5.69,5.69,0,0,0-2,11l-.31,3.2,4.58-3.33A5.7,5.7,0,0,0,156,4.37Z"/></g></g></svg>