<svg xmlns="http://www.w3.org/2000/svg" viewBox="0 0 60.94 69.46"><defs><style>.cls-1{fill:#12254a;}.cls-2{fill:#fdd51a;}.cls-3{fill:#183051;}</style></defs><g id="Layer_2" data-name="Layer 2"><g id="시안01"><g id="black"><path class="cls-1" d="M59.48,16.29,31.93.39A2.93,2.93,0,0,0,29,.39L1.46,16.29A3,3,0,0,0,0,18.83v31.8a2.94,2.94,0,0,0,1.46,2.54L29,69.07a2.95,2.95,0,0,0,2.93,0l27.53-15.9a2.92,2.92,0,0,0,1.47-2.54V18.83A2.94,2.94,0,0,0,59.48,16.29Z"/><path class="cls-2" d="M33.16,36.38A1.62,1.62,0,0,1,33.81,35l7.36-4.45a1.58,1.58,0,0,1,1.58.27l1.89,1.11a2.89,2.89,0,0,0,3,0l8.69-5.39c.74-.47,1.82-.22,1.82,1.3l0,19.77c0,1.16-.08,1.85-.45,2.08l-22.64,13a1.13,1.13,0,0,1-1.67-1.1Z"/><path class="cls-3" d="M1.5,17.86l28.07,16a.9.9,0,0,1,.47.81L30,67.94a.93.93,0,0,1-1.39.81L1.76,53.31A3.36,3.36,0,0,1,.08,50.4l0-31.73A.93.93,0,0,1,1.5,17.86Z"/></g></g></g></svg>