<svg xmlns="http://www.w3.org/2000/svg" viewBox="0 0 178.02 25.95"><defs><style>.cls-1{fill:#00294d;}.cls-2{fill:#bf232b;}</style></defs><g id="Layer_2" data-name="Layer 2"><g id="_레이어_" data-name="&lt;레이어&gt;"><path class="cls-1" d="M45,8.75h1.33c3.06,0,3.51,2.21,3.51,4.23s-.45,4.25-3.51,4.22H45ZM42.4,19.3h4.1c3.74,0,6.07-1.93,6.07-6.32S50.24,6.62,46.5,6.65H42.4Z"/><path class="cls-1" d="M59.48,8.35c2.54,0,3,2.45,3,4.63s-.49,4.62-3,4.62-3-2.45-3-4.62S56.93,8.35,59.48,8.35Zm0,11.21c4,0,5.77-2.85,5.77-6.58s-1.79-6.59-5.77-6.59S53.7,9.24,53.7,13,55.5,19.56,59.48,19.56Z"/><path class="cls-1" d="M73.93,19.3,69.19,8.79l0,0V19.3H66.74V6.65h3.83l4.58,10,0,0V6.65h2.41V19.3Z"/><path class="cls-1" d="M84.9,14.66V12.55h4.92v6.33a12.26,12.26,0,0,1-2.69.56,25.42,25.42,0,0,1-2.76.12C82,19.56,78.72,18,78.72,13S82,6.39,84.37,6.39c3.47,0,5.62,1.1,5.64,4.12H87.26c0-1.61-1-2.16-2.41-2.16-2.28,0-3.38,1.77-3.38,4.63s1.1,4.62,3.38,4.62a10.66,10.66,0,0,0,2.39-.28V14.66Z"/><path class="cls-1" d="M95.14,12.12h0l4-5.47h3l-4.42,5.66,4.8,7H99.35l-4.18-6.45h0V19.3H92.55V6.65h2.59Z"/><path class="cls-1" d="M113.42,6.65v7.92c0,3.36-2.3,5-5.21,5s-5.21-1.63-5.21-5V6.65h2.58v6.87c0,2.13.1,4.08,2.63,4.08s2.63-2,2.63-4.08V6.65Z"/><path class="cls-1" d="M117.93,12.12h0l4-5.47h3l-4.41,5.66,4.79,7h-3.21L118,12.85h0V19.3h-2.58V6.65h2.58Z"/><path class="cls-1" d="M131.87,15.6c0,1.79,1,2.45,2.63,2.45,1.36,0,3-.42,3-2.19,0-1.22-1-1.73-2-1.94-2-.45-5.28-.93-5.28-3.76s2.38-3.77,4.63-3.77c2,0,4.06,1,4.06,3.42h-1.75c-.07-1.42-1.2-1.91-2.4-1.91s-2.79.45-2.79,2,1,1.52,2,1.87c2.21.75,5.23.75,5.23,3.94,0,2.88-2.45,3.89-4.88,3.89s-4.34-1.12-4.28-4Z"/><path class="cls-1" d="M144,8.16h-4V6.65h9.72V8.16h-4V19.3H144Z"/><path class="cls-1" d="M150.79,19.3V6.65h7.54V8.16h-5.87V12.1h5.59v1.5h-5.59v4.19h6V19.3Z"/><path class="cls-1" d="M160.63,19.3V6.65h7.54V8.16h-5.88V12.1h5.6v1.5h-5.6v4.19h6V19.3Z"/><path class="cls-1" d="M170.77,19.3V6.65h1.66V17.79H178V19.3Z"/><polygon class="cls-1" points="36.7 22.23 28.09 12.89 36.7 3.6 28.96 3.6 20.24 12.9 28.83 22.23 36.7 22.23"/><path class="cls-1" d="M6.64,3.6H0V9.1H6.64a3.91,3.91,0,0,1,3.8,3.81,3.91,3.91,0,0,1-3.6,3.8h-2V11.05H0V22.2H6.85A9.3,9.3,0,0,0,6.64,3.6Z"/><polygon class="cls-2" points="15.68 7.65 19.01 11.17 29.53 0 22.82 0 15.68 7.65"/><polygon class="cls-2" points="22.58 18.49 19.22 14.88 8.85 25.95 15.58 25.95 22.58 18.49"/></g></g></svg>